<?xml version="1.0" encoding="UTF-8" standalone="no"?><svg xmlns="http://www.w3.org/2000/svg" xmlns:xlink="http://www.w3.org/1999/xlink" contentScriptType="application/ecmascript" contentStyleType="text/css" height="662.636px" preserveAspectRatio="none" style="width:792px;height:662px;" version="1.1" viewBox="0 0 792 662" width="792.2612px" zoomAndPan="magnify"><defs><filter height="300%" id="f38ro07ua8030" width="300%" x="-1" y="-1"><feGaussianBlur result="blurOut" stdDeviation="1.9347037484885128"/><feColorMatrix in="blurOut" result="blurOut2" type="matrix" values="0 0 0 0 0 0 0 0 0 0 0 0 0 0 0 0 0 0 .4 0"/><feOffset dx="3.8694074969770256" dy="3.8694074969770256" in="blurOut2" result="blurOut3"/><feBlend in="SourceGraphic" in2="blurOut3" mode="normal"/></filter></defs><g><text fill="#000000" font-family="sans-serif" font-size="17.4123" font-weight="bold" lengthAdjust="spacingAndGlyphs" textLength="157.6784" x="167.8356" y="18.7689">background color</text><text fill="#000000" font-family="sans-serif" font-size="17.4123" font-weight="bold" lengthAdjust="spacingAndGlyphs" textLength="78.3555" x="377.7509" y="18.7689">meaning</text><rect fill="#FF0000" height="20.5071" style="stroke: none; stroke-width: 0.9673518742442564;" width="209.9154" x="162.0314" y="22.4418"/><text fill="#000000" font-family="sans-serif" font-size="17.4123" lengthAdjust="spacingAndGlyphs" textLength="27.0859" x="167.8356" y="39.276">red</text><text fill="#000000" font-family="sans-serif" font-size="17.4123" lengthAdjust="spacingAndGlyphs" textLength="238.9359" x="377.7509" y="39.276">belongs to V in MVC pattern</text><rect fill="#90EE90" height="20.5071" style="stroke: none; stroke-width: 0.9673518742442564;" width="209.9154" x="162.0314" y="42.9489"/><text fill="#000000" font-family="sans-serif" font-size="17.4123" lengthAdjust="spacingAndGlyphs" textLength="90.9311" x="162.0314" y="59.7831">light green</text><text fill="#000000" font-family="sans-serif" font-size="17.4123" lengthAdjust="spacingAndGlyphs" textLength="238.9359" x="377.7509" y="59.7831">belongs to C in MVC pattern</text><rect fill="#FFFF00" height="20.5071" style="stroke: none; stroke-width: 0.9673518742442564;" width="209.9154" x="162.0314" y="63.456"/><text fill="#000000" font-family="sans-serif" font-size="17.4123" lengthAdjust="spacingAndGlyphs" textLength="52.237" x="162.0314" y="80.2902">yellow</text><text fill="#000000" font-family="sans-serif" font-size="17.4123" lengthAdjust="spacingAndGlyphs" textLength="242.8053" x="377.7509" y="80.2902">belongs to M in MVC pattern</text><rect fill="#FFFFFF" height="20.5071" style="stroke: none; stroke-width: 0.9673518742442564;" width="209.9154" x="162.0314" y="83.9631"/><text fill="#000000" font-family="sans-serif" font-size="17.4123" lengthAdjust="spacingAndGlyphs" textLength="45.4655" x="162.0314" y="100.7973">white</text><text fill="#000000" font-family="sans-serif" font-size="17.4123" lengthAdjust="spacingAndGlyphs" textLength="109.3108" x="377.7509" y="100.7973">value objects</text><rect fill="#87CEEB" height="20.5071" style="stroke: none; stroke-width: 0.9673518742442564;" width="209.9154" x="162.0314" y="104.4702"/><text fill="#000000" font-family="sans-serif" font-size="17.4123" lengthAdjust="spacingAndGlyphs" textLength="63.8452" x="162.0314" y="121.3044">skyblue</text><text fill="#000000" font-family="sans-serif" font-size="17.4123" lengthAdjust="spacingAndGlyphs" textLength="82.2249" x="377.7509" y="121.3044">interfaces</text><line style="stroke: #000000; stroke-width: 0.9673518742442564;" x1="162.0314" x2="637.9686" y1="1.9347" y2="1.9347"/><line style="stroke: #000000; stroke-width: 0.9673518742442564;" x1="162.0314" x2="637.9686" y1="22.4418" y2="22.4418"/><line style="stroke: #000000; stroke-width: 0.9673518742442564;" x1="162.0314" x2="637.9686" y1="42.9489" y2="42.9489"/><line style="stroke: #000000; stroke-width: 0.9673518742442564;" x1="162.0314" x2="637.9686" y1="63.456" y2="63.456"/><line style="stroke: #000000; stroke-width: 0.9673518742442564;" x1="162.0314" x2="637.9686" y1="83.9631" y2="83.9631"/><line style="stroke: #000000; stroke-width: 0.9673518742442564;" x1="162.0314" x2="637.9686" y1="104.4702" y2="104.4702"/><line style="stroke: #000000; stroke-width: 0.9673518742442564;" x1="162.0314" x2="637.9686" y1="124.9773" y2="124.9773"/><line style="stroke: #000000; stroke-width: 0.9673518742442564;" x1="162.0314" x2="162.0314" y1="1.9347" y2="124.9773"/><line style="stroke: #000000; stroke-width: 0.9673518742442564;" x1="371.9468" x2="371.9468" y1="1.9347" y2="124.9773"/><line style="stroke: #000000; stroke-width: 0.9673518742442564;" x1="637.9686" x2="637.9686" y1="1.9347" y2="124.9773"/><!--class ServiceForms--><rect fill="#FFFFFF" filter="url(#f38ro07ua8030)" height="23.3449" id="ServiceForms" style="stroke: #A80036; stroke-width: 1.4510278113663846;" width="78.3555" x="123.3374" y="531.2651"/><rect fill="#FFFFFF" height="23.3449" style="stroke: #A80036; stroke-width: 1.4510278113663846;" width="78.3555" x="123.3374" y="531.2651"/><text fill="#000000" font-family="sans-serif" font-size="11.6082" lengthAdjust="spacingAndGlyphs" textLength="72.5514" x="126.2394" y="547.3247">ServiceForms</text><!--class Views--><rect fill="#FFFFFF" filter="url(#f38ro07ua8030)" height="23.3449" id="Views" style="stroke: #A80036; stroke-width: 1.4510278113663846;" width="37.7267" x="202.6602" y="628.9677"/><rect fill="#FFFFFF" height="23.3449" style="stroke: #A80036; stroke-width: 1.4510278113663846;" width="37.7267" x="202.6602" y="628.9677"/><text fill="#000000" font-family="sans-serif" font-size="11.6082" lengthAdjust="spacingAndGlyphs" textLength="31.9226" x="205.5623" y="645.0272">Views</text><!--class Entities--><rect fill="#FFFF00" filter="url(#f38ro07ua8030)" height="23.3449" id="Entities" style="stroke: #A80036; stroke-width: 1.4510278113663846;" width="45.4655" x="512.2128" y="432.1115"/><rect fill="#FFFF00" height="23.3449" style="stroke: #A80036; stroke-width: 1.4510278113663846;" width="45.4655" x="512.2128" y="432.1115"/><text fill="#000000" font-family="sans-serif" font-size="11.6082" lengthAdjust="spacingAndGlyphs" textLength="39.6614" x="515.1149" y="448.1711">Entities</text><!--class Browsers--><rect fill="#FF0000" filter="url(#f38ro07ua8030)" height="23.3449" id="Browsers" style="stroke: #A80036; stroke-width: 1.4510278113663846;" width="56.1064" x="52.237" y="134.6508"/><rect fill="#FF0000" height="23.3449" style="stroke: #A80036; stroke-width: 1.4510278113663846;" width="56.1064" x="52.237" y="134.6508"/><text fill="#000000" font-family="sans-serif" font-size="11.6082" lengthAdjust="spacingAndGlyphs" textLength="50.3023" x="55.1391" y="150.7104">Browsers</text><!--class Controllers--><rect fill="#90EE90" filter="url(#f38ro07ua8030)" height="23.3449" id="Controllers" style="stroke: #A80036; stroke-width: 1.4510278113663846;" width="65.7799" x="47.4002" y="232.3534"/><rect fill="#90EE90" height="23.3449" style="stroke: #A80036; stroke-width: 1.4510278113663846;" width="65.7799" x="47.4002" y="232.3534"/><text fill="#000000" font-family="sans-serif" font-size="11.6082" lengthAdjust="spacingAndGlyphs" textLength="59.9758" x="50.3023" y="248.4129">Controllers</text><!--class Services--><rect fill="#FFFF00" filter="url(#f38ro07ua8030)" height="23.3449" id="Services" style="stroke: #A80036; stroke-width: 1.4510278113663846;" width="50.3023" x="279.5647" y="331.507"/><rect fill="#FFFF00" height="23.3449" style="stroke: #A80036; stroke-width: 1.4510278113663846;" width="50.3023" x="279.5647" y="331.507"/><text fill="#000000" font-family="sans-serif" font-size="11.6082" lengthAdjust="spacingAndGlyphs" textLength="44.4982" x="282.4667" y="347.5665">Services</text><!--class Repositories--><rect fill="#FFFF00" filter="url(#f38ro07ua8030)" height="23.3449" id="Repositories" style="stroke: #A80036; stroke-width: 1.4510278113663846;" width="74.4861" x="707.6179" y="432.1115"/><rect fill="#FFFF00" height="23.3449" style="stroke: #A80036; stroke-width: 1.4510278113663846;" width="74.4861" x="707.6179" y="432.1115"/><text fill="#000000" font-family="sans-serif" font-size="11.6082" lengthAdjust="spacingAndGlyphs" textLength="68.682" x="710.52" y="448.1711">Repositories</text><!--class Daos--><rect fill="#FFFF00" filter="url(#f38ro07ua8030)" height="23.3449" id="Daos" style="stroke: #A80036; stroke-width: 1.4510278113663846;" width="33.8573" x="397.0979" y="432.1115"/><rect fill="#FFFF00" height="23.3449" style="stroke: #A80036; stroke-width: 1.4510278113663846;" width="33.8573" x="397.0979" y="432.1115"/><text fill="#000000" font-family="sans-serif" font-size="11.6082" lengthAdjust="spacingAndGlyphs" textLength="28.0532" x="400" y="448.1711">Daos</text><!--class FeignClients--><rect fill="#87CEEB" filter="url(#f38ro07ua8030)" height="23.3449" id="FeignClients" style="stroke: #A80036; stroke-width: 1.4510278113663846;" width="71.584" x="222.4909" y="432.1115"/><rect fill="#87CEEB" height="23.3449" style="stroke: #A80036; stroke-width: 1.4510278113663846;" width="71.584" x="222.4909" y="432.1115"/><text fill="#000000" font-family="sans-serif" font-size="11.6082" lengthAdjust="spacingAndGlyphs" textLength="65.7799" x="225.393" y="448.1711">FeignClients</text><!--link Browsers to Controllers--><path d="M80.2902,158.2393 C80.2902,175.5464 80.2902,207.6149 80.2902,227.2437 " fill="none" id="Browsers-Controllers" style="stroke: #A80036; stroke-width: 0.9673518742442564; stroke-dasharray: 7.0,7.0;"/><polygon fill="#A80036" points="80.2902,232.1885,84.1596,223.4824,80.2902,227.3518,76.4208,223.4824,80.2902,232.1885" style="stroke: #A80036; stroke-width: 0.9673518742442564;"/><text fill="#000000" font-family="sans-serif" font-size="12.5756" lengthAdjust="spacingAndGlyphs" textLength="88.029" x="81.2576" y="200.0132">HTTP requests</text><!--link Controllers to Services--><path d="M106.9161,255.7252 C149.0384,274.3353 230.7746,310.4471 274.8396,329.9156 " fill="none" id="Controllers-Services" style="stroke: #A80036; stroke-width: 0.9673518742442564; stroke-dasharray: 7.0,7.0;"/><polygon fill="#A80036" points="279.5027,331.9757,273.103,324.9178,275.0785,330.021,269.9754,331.9965,279.5027,331.9757" style="stroke: #A80036; stroke-width: 0.9673518742442564;"/><text fill="#000000" font-family="sans-serif" font-size="12.5756" lengthAdjust="spacingAndGlyphs" textLength="21.2817" x="206.0459" y="297.7158">call</text><!--link Services to Services--><path d="M329.883,334.559 C346.9835,332.0595 363.7243,334.9115 363.7243,343.1152 C363.7243,350.4856 350.2113,353.5363 335.0651,352.2673 " fill="none" id="Services-Services" style="stroke: #A80036; stroke-width: 0.9673518742442564; stroke-dasharray: 7.0,7.0;"/><polygon fill="#A80036" points="329.883,351.6713,338.0901,356.5101,334.6881,352.2239,338.9743,348.822,329.883,351.6713" style="stroke: #A80036; stroke-width: 0.9673518742442564;"/><text fill="#000000" font-family="sans-serif" font-size="12.5756" lengthAdjust="spacingAndGlyphs" textLength="50.3023" x="369.5284" y="348.0181">may call</text><!--link Services to FeignClients--><path d="M291.0437,355.0185 C283.0235,362.7892 273.421,373.615 267.9565,385.195 C261.7265,398.3969 259.4299,414.9222 258.6208,427.0428 " fill="none" id="Services-FeignClients" style="stroke: #A80036; stroke-width: 0.9673518742442564; stroke-dasharray: 7.0,7.0;"/><polygon fill="#A80036" points="258.358,431.9452,262.6883,423.4588,258.6171,427.1153,254.9606,423.0442,258.358,431.9452" style="stroke: #A80036; stroke-width: 0.9673518742442564;"/><text fill="#000000" font-family="sans-serif" font-size="12.5756" lengthAdjust="spacingAndGlyphs" textLength="50.3023" x="268.9238" y="398.3204">may call</text><!--link Services to Repositories--><path d="M329.9608,348.8854 C402.5505,365.4774 612.3995,413.4429 702.7109,434.0855 " fill="none" id="Services-Repositories" style="stroke: #A80036; stroke-width: 0.9673518742442564; stroke-dasharray: 7.0,7.0;"/><polygon fill="#A80036" points="707.4424,435.1669,699.8174,429.4548,702.7273,434.0892,698.0929,436.9991,707.4424,435.1669" style="stroke: #A80036; stroke-width: 0.9673518742442564;"/><text fill="#000000" font-family="sans-serif" font-size="12.5756" lengthAdjust="spacingAndGlyphs" textLength="50.3023" x="551.3906" y="398.3204">may call</text><!--link Services to Daos--><path d="M326.7708,354.8629 C339.979,362.499 356.6487,373.2375 369.5284,385.195 C383.1913,397.8796 395.7491,415.1415 404.0149,427.6282 " fill="none" id="Services-Daos" style="stroke: #A80036; stroke-width: 0.9673518742442564; stroke-dasharray: 7.0,7.0;"/><polygon fill="#A80036" points="406.8602,431.9952,405.3498,422.5884,404.2199,427.9426,398.8657,426.8128,406.8602,431.9952" style="stroke: #A80036; stroke-width: 0.9673518742442564;"/><text fill="#000000" font-family="sans-serif" font-size="12.5756" lengthAdjust="spacingAndGlyphs" textLength="50.3023" x="385.006" y="398.3204">may call</text><!--link Entities to Repositories--><path d="M563.0952,443.7198 C600.3658,443.7198 666.189,443.7198 707.5638,443.7198 " fill="none" id="Entities-Repositories" style="stroke: #A80036; stroke-width: 0.9673518742442564;"/><polygon fill="#A80036" points="557.8098,443.7198,566.516,447.5892,562.6466,443.7198,566.516,439.8504,557.8098,443.7198" style="stroke: #A80036; stroke-width: 0.9673518742442564;"/><text fill="#000000" font-family="sans-serif" font-size="12.5756" lengthAdjust="spacingAndGlyphs" textLength="45.4655" x="609.9154" y="437.4981">retrieve</text><!--link Daos to Entities--><path d="M431.0948,443.7198 C450.9082,443.7198 483.8622,443.7198 507.3331,443.7198 " fill="none" id="Daos-Entities" style="stroke: #A80036; stroke-width: 0.9673518742442564;"/><polygon fill="#A80036" points="512.1894,443.7198,503.4832,439.8504,507.3526,443.7198,503.4832,447.5892,512.1894,443.7198" style="stroke: #A80036; stroke-width: 0.9673518742442564;"/><text fill="#000000" font-family="sans-serif" font-size="12.5756" lengthAdjust="spacingAndGlyphs" textLength="45.4655" x="448.8513" y="437.4981">retrieve</text><!--link Entities to Entities--><path d="M557.9026,435.3525 C574.7027,432.5306 591.5357,435.3197 591.5357,443.7198 C591.5357,449.9543 582.2633,453.0979 570.614,453.1508 " fill="none" id="Entities-Entities" style="stroke: #A80036; stroke-width: 0.9673518742442564;"/><polygon fill="#FFFFFF" points="557.9026,452.0871,563.3637,456.4271,569.4704,453.0553,564.0092,448.7152,557.9026,452.0871" style="stroke: #A80036; stroke-width: 0.9673518742442564;"/><text fill="#000000" font-family="sans-serif" font-size="12.5756" lengthAdjust="spacingAndGlyphs" textLength="39.6614" x="597.3398" y="448.6227">link to</text><!--link Controllers to Views--><path d="M63.3881,255.5738 C41.4117,272.1954 5.8041,305.0065 5.8041,343.1152 C5.8041,343.1152 5.8041,343.1152 5.8041,542.8733 C5.8041,584.5782 141.284,621.5427 197.5114,635.088 " fill="none" id="Controllers-Views" style="stroke: #A80036; stroke-width: 0.9673518742442564; stroke-dasharray: 7.0,7.0;"/><polygon fill="#A80036" points="202.3799,636.2499,194.8098,630.4651,197.6753,635.127,193.0133,637.9925,202.3799,636.2499" style="stroke: #A80036; stroke-width: 0.9673518742442564;"/><text fill="#000000" font-family="sans-serif" font-size="12.5756" lengthAdjust="spacingAndGlyphs" textLength="21.2817" x="6.7715" y="448.6227">use</text><!--link Controllers to ServiceForms--><path d="M83.5135,255.6793 C96.256,302.0018 143.1414,472.4442 157.9804,526.388 " fill="none" id="Controllers-ServiceForms" style="stroke: #A80036; stroke-width: 0.9673518742442564; stroke-dasharray: 7.0,7.0;"/><polygon fill="#A80036" points="159.3141,531.2367,160.7357,521.816,158.0312,526.5731,153.2741,523.8686,159.3141,531.2367" style="stroke: #A80036; stroke-width: 0.9673518742442564;"/><text fill="#000000" font-family="sans-serif" font-size="12.5756" lengthAdjust="spacingAndGlyphs" textLength="21.2817" x="124.7884" y="398.3204">use</text><!--link Services to Views--><path d="M311.7459,354.7855 C316.2537,362.9743 321.6904,374.3554 324.0629,385.195 C325.6256,392.3348 324.836,394.3721 324.0629,401.64 C316.7127,470.7347 309.7092,487.5151 291.1729,554.4816 C285.4785,575.0537 288.2314,582.6704 275.6953,599.9471 C267.5278,611.2031 255.3412,620.732 244.594,627.7264 " fill="none" id="Services-Views" style="stroke: #A80036; stroke-width: 0.9673518742442564; stroke-dasharray: 7.0,7.0;"/><polygon fill="#A80036" points="240.4029,630.3759,249.8295,628.9943,244.4912,627.7913,245.6941,622.453,240.4029,630.3759" style="stroke: #A80036; stroke-width: 0.9673518742442564;"/><text fill="#000000" font-family="sans-serif" font-size="12.5756" lengthAdjust="spacingAndGlyphs" textLength="21.2817" x="310.52" y="498.925">use</text><!--link Services to ServiceForms--><path d="M279.4447,354.042 C251.1265,367.6744 206.1399,393.7682 182.8295,430.6605 C164.051,460.3805 161.5495,502.8596 161.7793,526.0985 " fill="none" id="Services-ServiceForms" style="stroke: #A80036; stroke-width: 0.9673518742442564; stroke-dasharray: 7.0,7.0;"/><polygon fill="#A80036" points="161.8724,531.0271,165.5764,522.2493,161.7809,526.1913,157.839,522.3957,161.8724,531.0271" style="stroke: #A80036; stroke-width: 0.9673518742442564;"/><text fill="#000000" font-family="sans-serif" font-size="12.5756" lengthAdjust="spacingAndGlyphs" textLength="21.2817" x="183.7969" y="448.6227">use</text><!--link FeignClients to Views--><path d="M259.5875,455.4824 C262.1044,482.0598 265.9597,548.4414 248.6094,599.9471 C245.6512,608.729 240.2806,617.419 235.0974,624.4944 " fill="none" id="FeignClients-Views" style="stroke: #A80036; stroke-width: 0.9673518742442564; stroke-dasharray: 7.0,7.0;"/><polygon fill="#A80036" points="231.9175,628.6775,240.2667,624.0884,234.8446,624.8271,234.1059,619.405,231.9175,628.6775" style="stroke: #A80036; stroke-width: 0.9673518742442564;"/><text fill="#000000" font-family="sans-serif" font-size="12.5756" lengthAdjust="spacingAndGlyphs" textLength="21.2817" x="261.185" y="547.7762">use</text><!--link FeignClients to ServiceForms--><path d="M246.921,455.4833 C229.5696,473.4482 196.4659,507.7223 177.2764,527.5901 " fill="none" id="FeignClients-ServiceForms" style="stroke: #A80036; stroke-width: 0.9673518742442564; stroke-dasharray: 7.0,7.0;"/><polygon fill="#A80036" points="173.8622,531.125,182.6938,527.5511,177.2225,527.6461,177.1275,522.1748,173.8622,531.125" style="stroke: #A80036; stroke-width: 0.9673518742442564;"/><text fill="#000000" font-family="sans-serif" font-size="12.5756" lengthAdjust="spacingAndGlyphs" textLength="21.2817" x="216.6868" y="498.925">use</text><!--link ServiceForms to Views--><path d="M162.1701,554.6087 C162.3234,566.7451 164.0301,585.8579 172.1886,599.9471 C175.9991,606.5275 181.305,612.4963 187.0325,617.7094 " fill="none" id="ServiceForms-Views" style="stroke: #A80036; stroke-width: 0.9673518742442564;"/><polygon fill="none" points="191.2925,612.4439,202.4409,629.6449,182.9991,623.1505,191.2925,612.4439" style="stroke: #A80036; stroke-width: 0.9673518742442564;"/><text fill="#000000" font-family="sans-serif" font-size="12.5756" lengthAdjust="spacingAndGlyphs" textLength="70.6167" x="173.156" y="596.6275">may extend</text><!--
@startuml

hide circle
hide empty member

scale max 800 width


title
  |= background color        |= meaning                      |
  |<#red> red                | belongs to V in MVC pattern   |
  |<#lightgreen>light green  | belongs to C in MVC pattern   |
  |<#yellow>yellow           | belongs to M in MVC pattern   |
  |<#white>white             | value objects                 |
  |<#skyblue>skyblue         | interfaces                    |
end title



  class ServiceForms  #white
  class Views         #white


class Entities  #yellow

class Browsers #red
class Controllers  #lightgreen
class Services     #yellow
class Repositories  #yellow
class Daos  #yellow
class FeignClients #skyblue



Browsers ..> Controllers : HTTP requests

Controllers ..> Services : call
Services ..> Services : may call
Services ..> FeignClients : may call


Services ..> Repositories : may call
Services ..> Daos : may call
Entities <- Repositories : retrieve


Daos -> Entities : retrieve

Entities - -o Entities : link to

Controllers ..> Views : use
Controllers ..> ServiceForms : use

Services ..> Views : use
Services ..> ServiceForms : use

FeignClients ..> Views : use
FeignClients ..> ServiceForms : use

ServiceForms - -|> Views : may extend

@enduml

PlantUML version 1.2017.16(Sun Sep 03 18:53:37 CST 2017)
(GPL source distribution)
Java Runtime: Java(TM) SE Runtime Environment
JVM: Java HotSpot(TM) 64-Bit Server VM
Java Version: 1.8.0_144-b01
Operating System: Mac OS X
OS Version: 10.12.6
Default Encoding: UTF-8
Language: en
Country: US
--></g></svg>