<?xml version="1.0" encoding="UTF-8" standalone="no"?><svg xmlns="http://www.w3.org/2000/svg" xmlns:xlink="http://www.w3.org/1999/xlink" contentScriptType="application/ecmascript" contentStyleType="text/css" height="660.4058px" preserveAspectRatio="none" style="width:1033px;height:660px;" version="1.1" viewBox="0 0 1033 660" width="1033.2754px" zoomAndPan="magnify"><defs><filter height="300%" id="ftykvb6zzwtn3" width="300%" x="-1" y="-1"><feGaussianBlur result="blurOut" stdDeviation="1.855072463768116"/><feColorMatrix in="blurOut" result="blurOut2" type="matrix" values="0 0 0 0 0 0 0 0 0 0 0 0 0 0 0 0 0 0 .4 0"/><feOffset dx="3.710144927536232" dy="3.710144927536232" in="blurOut2" result="blurOut3"/><feBlend in="SourceGraphic" in2="blurOut3" mode="normal"/></filter></defs><g><line style="stroke: #A80036; stroke-width: 0.927536231884058; stroke-dasharray: 5.0,5.0;" x1="33.3913" x2="33.3913" y1="61.7826" y2="591.7609"/><line style="stroke: #A80036; stroke-width: 0.927536231884058; stroke-dasharray: 5.0,5.0;" x1="216.1159" x2="216.1159" y1="61.7826" y2="591.7609"/><line style="stroke: #A80036; stroke-width: 0.927536231884058; stroke-dasharray: 5.0,5.0;" x1="367.3043" x2="367.3043" y1="61.7826" y2="591.7609"/><line style="stroke: #A80036; stroke-width: 0.927536231884058; stroke-dasharray: 5.0,5.0;" x1="505.971" x2="505.971" y1="61.7826" y2="591.7609"/><line style="stroke: #A80036; stroke-width: 0.927536231884058; stroke-dasharray: 5.0,5.0;" x1="681.7391" x2="681.7391" y1="61.7826" y2="591.7609"/><line style="stroke: #A80036; stroke-width: 0.927536231884058; stroke-dasharray: 5.0,5.0;" x1="794.8986" x2="794.8986" y1="61.7826" y2="591.7609"/><line style="stroke: #A80036; stroke-width: 0.927536231884058; stroke-dasharray: 5.0,5.0;" x1="902.4928" x2="902.4928" y1="61.7826" y2="591.7609"/><line style="stroke: #A80036; stroke-width: 0.927536231884058; stroke-dasharray: 5.0,5.0;" x1="1005.4493" x2="1005.4493" y1="61.7826" y2="591.7609"/><text fill="#000000" font-family="sans-serif" font-size="12.9855" lengthAdjust="spacingAndGlyphs" textLength="47.3043" x="7.4203" y="58.9293">Browser</text><path d="M14.8406,19.4783 L14.8406,41.7391 M14.8406,30.6087 L30.6087,30.6087 " fill="#FEFECE" filter="url(#ftykvb6zzwtn3)" style="stroke: #A80036; stroke-width: 1.855072463768116;"/><ellipse cx="41.7391" cy="30.6087" fill="#FEFECE" filter="url(#ftykvb6zzwtn3)" rx="11.1304" ry="11.1304" style="stroke: #A80036; stroke-width: 1.855072463768116;"/><text fill="#000000" font-family="sans-serif" font-size="12.9855" lengthAdjust="spacingAndGlyphs" textLength="47.3043" x="7.4203" y="604.3134">Browser</text><path d="M14.8406,610.8768 L14.8406,633.1377 M14.8406,622.0072 L30.6087,622.0072 " fill="#FEFECE" filter="url(#ftykvb6zzwtn3)" style="stroke: #A80036; stroke-width: 1.855072463768116;"/><ellipse cx="41.7391" cy="622.0072" fill="#FEFECE" filter="url(#ftykvb6zzwtn3)" rx="11.1304" ry="11.1304" style="stroke: #A80036; stroke-width: 1.855072463768116;"/><text fill="#000000" font-family="sans-serif" font-size="12.9855" lengthAdjust="spacingAndGlyphs" textLength="69.5652" x="179.0145" y="58.9293">Interceptors</text><ellipse cx="216.5797" cy="30.6087" fill="#FEFECE" filter="url(#ftykvb6zzwtn3)" rx="11.1304" ry="11.1304" style="stroke: #A80036; stroke-width: 1.855072463768116;"/><polygon fill="#A80036" points="212.8696,19.4783,218.4348,14.8406,216.5797,19.4783,218.4348,24.1159,212.8696,19.4783" style="stroke: #A80036; stroke-width: 0.927536231884058;"/><text fill="#000000" font-family="sans-serif" font-size="12.9855" lengthAdjust="spacingAndGlyphs" textLength="69.5652" x="179.0145" y="604.3134">Interceptors</text><ellipse cx="216.5797" cy="622.0072" fill="#FEFECE" filter="url(#ftykvb6zzwtn3)" rx="11.1304" ry="11.1304" style="stroke: #A80036; stroke-width: 1.855072463768116;"/><polygon fill="#A80036" points="212.8696,610.8768,218.4348,606.2391,216.5797,610.8768,218.4348,615.5145,212.8696,610.8768" style="stroke: #A80036; stroke-width: 0.927536231884058;"/><text fill="#000000" font-family="sans-serif" font-size="12.9855" lengthAdjust="spacingAndGlyphs" textLength="64" x="332.9855" y="58.9293">Controllers</text><ellipse cx="367.7681" cy="30.6087" fill="#FEFECE" filter="url(#ftykvb6zzwtn3)" rx="11.1304" ry="11.1304" style="stroke: #A80036; stroke-width: 1.855072463768116;"/><polygon fill="#A80036" points="364.058,19.4783,369.6232,14.8406,367.7681,19.4783,369.6232,24.1159,364.058,19.4783" style="stroke: #A80036; stroke-width: 0.927536231884058;"/><text fill="#000000" font-family="sans-serif" font-size="12.9855" lengthAdjust="spacingAndGlyphs" textLength="64" x="332.9855" y="604.3134">Controllers</text><ellipse cx="367.7681" cy="622.0072" fill="#FEFECE" filter="url(#ftykvb6zzwtn3)" rx="11.1304" ry="11.1304" style="stroke: #A80036; stroke-width: 1.855072463768116;"/><polygon fill="#A80036" points="364.058,610.8768,369.6232,606.2391,367.7681,610.8768,369.6232,615.5145,364.058,610.8768" style="stroke: #A80036; stroke-width: 0.927536231884058;"/><text fill="#000000" font-family="sans-serif" font-size="12.9855" lengthAdjust="spacingAndGlyphs" textLength="50.087" x="478.1449" y="58.9293">Services</text><ellipse cx="505.971" cy="30.6087" fill="#FEFECE" filter="url(#ftykvb6zzwtn3)" rx="11.1304" ry="11.1304" style="stroke: #A80036; stroke-width: 1.855072463768116;"/><polygon fill="#A80036" points="502.2609,19.4783,507.8261,14.8406,505.971,19.4783,507.8261,24.1159,502.2609,19.4783" style="stroke: #A80036; stroke-width: 0.927536231884058;"/><text fill="#000000" font-family="sans-serif" font-size="12.9855" lengthAdjust="spacingAndGlyphs" textLength="50.087" x="478.1449" y="604.3134">Services</text><ellipse cx="505.971" cy="622.0072" fill="#FEFECE" filter="url(#ftykvb6zzwtn3)" rx="11.1304" ry="11.1304" style="stroke: #A80036; stroke-width: 1.855072463768116;"/><polygon fill="#A80036" points="502.2609,610.8768,507.8261,606.2391,505.971,610.8768,507.8261,615.5145,502.2609,610.8768" style="stroke: #A80036; stroke-width: 0.927536231884058;"/><text fill="#000000" font-family="sans-serif" font-size="12.9855" lengthAdjust="spacingAndGlyphs" textLength="73.2754" x="642.7826" y="58.9293">FeignClients</text><ellipse cx="682.2029" cy="30.6087" fill="#FEFECE" filter="url(#ftykvb6zzwtn3)" rx="11.1304" ry="11.1304" style="stroke: #A80036; stroke-width: 1.855072463768116;"/><polygon fill="#A80036" points="678.4928,19.4783,684.058,14.8406,682.2029,19.4783,684.058,24.1159,678.4928,19.4783" style="stroke: #A80036; stroke-width: 0.927536231884058;"/><text fill="#000000" font-family="sans-serif" font-size="12.9855" lengthAdjust="spacingAndGlyphs" textLength="73.2754" x="642.7826" y="604.3134">FeignClients</text><ellipse cx="682.2029" cy="622.0072" fill="#FEFECE" filter="url(#ftykvb6zzwtn3)" rx="11.1304" ry="11.1304" style="stroke: #A80036; stroke-width: 1.855072463768116;"/><polygon fill="#A80036" points="678.4928,610.8768,684.058,606.2391,682.2029,610.8768,684.058,615.5145,678.4928,610.8768" style="stroke: #A80036; stroke-width: 0.927536231884058;"/><text fill="#000000" font-family="sans-serif" font-size="12.9855" lengthAdjust="spacingAndGlyphs" textLength="122.4348" x="730.8986" y="58.9293">RepositoriesOrDAOs</text><ellipse cx="794.8986" cy="30.6087" fill="#FEFECE" filter="url(#ftykvb6zzwtn3)" rx="11.1304" ry="11.1304" style="stroke: #A80036; stroke-width: 1.855072463768116;"/><polygon fill="#A80036" points="791.1884,19.4783,796.7536,14.8406,794.8986,19.4783,796.7536,24.1159,791.1884,19.4783" style="stroke: #A80036; stroke-width: 0.927536231884058;"/><text fill="#000000" font-family="sans-serif" font-size="12.9855" lengthAdjust="spacingAndGlyphs" textLength="122.4348" x="730.8986" y="604.3134">RepositoriesOrDAOs</text><ellipse cx="794.8986" cy="622.0072" fill="#FEFECE" filter="url(#ftykvb6zzwtn3)" rx="11.1304" ry="11.1304" style="stroke: #A80036; stroke-width: 1.855072463768116;"/><polygon fill="#A80036" points="791.1884,610.8768,796.7536,606.2391,794.8986,610.8768,796.7536,615.5145,791.1884,610.8768" style="stroke: #A80036; stroke-width: 0.927536231884058;"/><text fill="#000000" font-family="sans-serif" font-size="12.9855" lengthAdjust="spacingAndGlyphs" textLength="42.6667" x="878.3768" y="58.9293">Entities</text><ellipse cx="902.4928" cy="30.6087" fill="#FEFECE" filter="url(#ftykvb6zzwtn3)" rx="11.1304" ry="11.1304" style="stroke: #A80036; stroke-width: 1.855072463768116;"/><line style="stroke: #A80036; stroke-width: 1.855072463768116;" x1="891.3623" x2="913.6232" y1="43.5942" y2="43.5942"/><text fill="#000000" font-family="sans-serif" font-size="12.9855" lengthAdjust="spacingAndGlyphs" textLength="42.6667" x="878.3768" y="604.3134">Entities</text><ellipse cx="902.4928" cy="622.0072" fill="#FEFECE" filter="url(#ftykvb6zzwtn3)" rx="11.1304" ry="11.1304" style="stroke: #A80036; stroke-width: 1.855072463768116;"/><line style="stroke: #A80036; stroke-width: 1.855072463768116;" x1="891.3623" x2="913.6232" y1="634.9928" y2="634.9928"/><text fill="#000000" font-family="sans-serif" font-size="12.9855" lengthAdjust="spacingAndGlyphs" textLength="17.6232" x="993.8551" y="58.9293">DB</text><path d="M988.7536,12.058 C988.7536,2.7826 1005.4493,2.7826 1005.4493,2.7826 C1005.4493,2.7826 1022.1449,2.7826 1022.1449,12.058 L1022.1449,36.1739 C1022.1449,45.4493 1005.4493,45.4493 1005.4493,45.4493 C1005.4493,45.4493 988.7536,45.4493 988.7536,36.1739 L988.7536,12.058 " fill="#FEFECE" filter="url(#ftykvb6zzwtn3)" style="stroke: #000000; stroke-width: 1.391304347826087;"/><path d="M988.7536,12.058 C988.7536,21.3333 1005.4493,21.3333 1005.4493,21.3333 C1005.4493,21.3333 1022.1449,21.3333 1022.1449,12.058 " fill="none" style="stroke: #000000; stroke-width: 1.391304347826087;"/><text fill="#000000" font-family="sans-serif" font-size="12.9855" lengthAdjust="spacingAndGlyphs" textLength="17.6232" x="993.8551" y="604.3134">DB</text><path d="M988.7536,616.442 C988.7536,607.1667 1005.4493,607.1667 1005.4493,607.1667 C1005.4493,607.1667 1022.1449,607.1667 1022.1449,616.442 L1022.1449,640.558 C1022.1449,649.8333 1005.4493,649.8333 1005.4493,649.8333 C1005.4493,649.8333 988.7536,649.8333 988.7536,640.558 L988.7536,616.442 " fill="#FEFECE" filter="url(#ftykvb6zzwtn3)" style="stroke: #000000; stroke-width: 1.391304347826087;"/><path d="M988.7536,616.442 C988.7536,625.7174 1005.4493,625.7174 1005.4493,625.7174 C1005.4493,625.7174 1022.1449,625.7174 1022.1449,616.442 " fill="none" style="stroke: #000000; stroke-width: 1.391304347826087;"/><polygon fill="#A80036" points="205.4493,87.7536,214.7246,91.4638,205.4493,95.1739,209.1594,91.4638" style="stroke: #A80036; stroke-width: 0.927536231884058;"/><line style="stroke: #A80036; stroke-width: 0.927536231884058;" x1="33.8551" x2="211.0145" y1="91.4638" y2="91.4638"/><text fill="#000000" font-family="sans-serif" font-size="12.058" lengthAdjust="spacingAndGlyphs" textLength="113.1594" x="40.3478" y="87.2853">JSON HTTP Request</text><line style="stroke: #A80036; stroke-width: 0.927536231884058;" x1="216.5797" x2="255.5362" y1="119.942" y2="119.942"/><line style="stroke: #A80036; stroke-width: 0.927536231884058;" x1="255.5362" x2="255.5362" y1="119.942" y2="132"/><line style="stroke: #A80036; stroke-width: 0.927536231884058;" x1="217.5072" x2="255.5362" y1="132" y2="132"/><polygon fill="#A80036" points="226.7826,128.2899,217.5072,132,226.7826,135.7101,223.0725,132" style="stroke: #A80036; stroke-width: 0.927536231884058;"/><text fill="#000000" font-family="sans-serif" font-size="12.058" lengthAdjust="spacingAndGlyphs" textLength="96.4638" x="223.0725" y="115.4375">Security checking</text><polygon fill="#A80036" points="356.6377,186.7246,365.913,190.4348,356.6377,194.1449,360.3478,190.4348" style="stroke: #A80036; stroke-width: 0.927536231884058;"/><line style="stroke: #A80036; stroke-width: 0.927536231884058;" x1="216.5797" x2="362.2029" y1="190.4348" y2="190.4348"/><text fill="#000000" font-family="sans-serif" font-size="12.058" lengthAdjust="spacingAndGlyphs" textLength="108.5217" x="223.0725" y="155.6476">Parse HTTP request</text><text fill="#000000" font-family="sans-serif" font-size="12.058" lengthAdjust="spacingAndGlyphs" textLength="89.971" x="223.0725" y="170.8143">into java objects.</text><text fill="#000000" font-family="sans-serif" font-size="12.058" lengthAdjust="spacingAndGlyphs" textLength="128.9275" x="223.0725" y="185.981">Such as, Service Forms</text><polygon fill="#A80036" points="494.8406,214.6014,504.1159,218.3116,494.8406,222.0217,498.5507,218.3116" style="stroke: #A80036; stroke-width: 0.927536231884058;"/><line style="stroke: #A80036; stroke-width: 0.927536231884058;" x1="367.7681" x2="500.4058" y1="218.3116" y2="218.3116"/><text fill="#000000" font-family="sans-serif" font-size="12.058" lengthAdjust="spacingAndGlyphs" textLength="102.029" x="374.2609" y="214.1332">Launch transaction</text><line style="stroke: #A80036; stroke-width: 0.927536231884058;" x1="505.971" x2="544.9275" y1="246.7899" y2="246.7899"/><line style="stroke: #A80036; stroke-width: 0.927536231884058;" x1="544.9275" x2="544.9275" y1="246.7899" y2="258.8478"/><line style="stroke: #A80036; stroke-width: 0.927536231884058;" x1="506.8986" x2="544.9275" y1="258.8478" y2="258.8478"/><polygon fill="#A80036" points="516.1739,255.1377,506.8986,258.8478,516.1739,262.558,512.4638,258.8478" style="stroke: #A80036; stroke-width: 0.927536231884058;"/><text fill="#000000" font-family="sans-serif" font-size="12.058" lengthAdjust="spacingAndGlyphs" textLength="123.3623" x="512.4638" y="242.2853">May call other services</text><polygon fill="#A80036" points="671.0725,282.9638,680.3478,286.6739,671.0725,290.3841,674.7826,286.6739" style="stroke: #A80036; stroke-width: 0.927536231884058;"/><line style="stroke: #A80036; stroke-width: 0.927536231884058;" x1="505.971" x2="676.6377" y1="286.6739" y2="286.6739"/><text fill="#000000" font-family="sans-serif" font-size="12.058" lengthAdjust="spacingAndGlyphs" textLength="153.971" x="512.4638" y="282.4955">May call other micro-service.</text><polygon fill="#A80036" points="783.7681,325.9565,793.0435,329.6667,783.7681,333.3768,787.4783,329.6667" style="stroke: #A80036; stroke-width: 0.927536231884058;"/><line style="stroke: #A80036; stroke-width: 0.927536231884058;" x1="505.971" x2="789.3333" y1="329.6667" y2="329.6667"/><text fill="#000000" font-family="sans-serif" font-size="12.058" lengthAdjust="spacingAndGlyphs" textLength="154.8986" x="512.4638" y="310.6476">May call repositories or daos</text><text fill="#000000" font-family="sans-serif" font-size="12.058" lengthAdjust="spacingAndGlyphs" textLength="73.2754" x="516.1739" y="325.8143">to access DB</text><polygon fill="#A80036" points="891.3623,354.4348,900.6377,358.1449,891.3623,361.8551,895.0725,358.1449" style="stroke: #A80036; stroke-width: 0.927536231884058;"/><line style="stroke: #A80036; stroke-width: 0.927536231884058;" x1="794.8986" x2="896.9275" y1="358.1449" y2="358.1449"/><text fill="#000000" font-family="sans-serif" font-size="12.058" lengthAdjust="spacingAndGlyphs" textLength="85.3333" x="801.3913" y="353.9665">Retrieve entities</text><polygon fill="#A80036" points="994.3188,382.587,1003.5942,386.2971,994.3188,390.0072,998.029,386.2971" style="stroke: #A80036; stroke-width: 0.927536231884058;"/><line style="stroke: #A80036; stroke-width: 0.927536231884058;" x1="902.4928" x2="999.8841" y1="386.2971" y2="386.2971"/><text fill="#000000" font-family="sans-serif" font-size="12.058" lengthAdjust="spacingAndGlyphs" textLength="80.6957" x="908.9855" y="382.1187">Exchange data</text><polygon fill="#A80036" points="516.1739,425.5797,506.8986,429.2899,516.1739,433,512.4638,429.2899" style="stroke: #A80036; stroke-width: 0.927536231884058;"/><line style="stroke: #A80036; stroke-width: 0.927536231884058;" x1="510.6087" x2="793.971" y1="429.2899" y2="429.2899"/><text fill="#000000" font-family="sans-serif" font-size="12.058" lengthAdjust="spacingAndGlyphs" textLength="94.6087" x="521.7391" y="410.2708">Return entities for</text><text fill="#000000" font-family="sans-serif" font-size="12.058" lengthAdjust="spacingAndGlyphs" textLength="119.6522" x="521.7391" y="425.4375">services to manipulate</text><polygon fill="#A80036" points="377.971,468.8986,368.6957,472.6087,377.971,476.3188,374.2609,472.6087" style="stroke: #A80036; stroke-width: 0.927536231884058;"/><line style="stroke: #A80036; stroke-width: 0.927536231884058;" x1="372.4058" x2="505.0435" y1="472.6087" y2="472.6087"/><text fill="#000000" font-family="sans-serif" font-size="12.058" lengthAdjust="spacingAndGlyphs" textLength="112.2319" x="383.5362" y="453.5897">Return value objects.</text><text fill="#000000" font-family="sans-serif" font-size="12.058" lengthAdjust="spacingAndGlyphs" textLength="88.1159" x="383.5362" y="468.7563">Such as, Views.</text><polygon fill="#A80036" points="226.7826,542.8261,217.5072,546.5362,226.7826,550.2464,223.0725,546.5362" style="stroke: #A80036; stroke-width: 0.927536231884058;"/><line style="stroke: #A80036; stroke-width: 0.927536231884058;" x1="221.2174" x2="366.8406" y1="546.5362" y2="546.5362"/><text fill="#000000" font-family="sans-serif" font-size="12.058" lengthAdjust="spacingAndGlyphs" textLength="73.2754" x="232.3478" y="496.9085">Do some final</text><text fill="#000000" font-family="sans-serif" font-size="12.058" lengthAdjust="spacingAndGlyphs" textLength="103.8841" x="232.3478" y="512.0752">adjustment to data.</text><text fill="#000000" font-family="sans-serif" font-size="12.058" lengthAdjust="spacingAndGlyphs" textLength="121.5072" x="232.3478" y="527.2418">Such as, update HTTP</text><text fill="#000000" font-family="sans-serif" font-size="12.058" lengthAdjust="spacingAndGlyphs" textLength="46.3768" x="236.058" y="542.4085">headers.</text><polygon fill="#A80036" points="44.058,571.029,34.7826,574.7391,44.058,578.4493,40.3478,574.7391" style="stroke: #A80036; stroke-width: 0.927536231884058;"/><line style="stroke: #A80036; stroke-width: 0.927536231884058;" x1="38.4928" x2="215.6522" y1="574.7391" y2="574.7391"/><text fill="#000000" font-family="sans-serif" font-size="12.058" lengthAdjust="spacingAndGlyphs" textLength="160.4638" x="49.6232" y="570.5607">Return JSON HTTP response.</text><!--
@startuml

scale max 1024 width

boundary Browser
control Interceptors
control Controllers
control Services
control FeignClients
control RepositoriesOrDAOs
entity Entities
database DB

Browser -> Interceptors : JSON HTTP Request
Interceptors -> Interceptors : Security checking
Interceptors -> Controllers : Parse HTTP request \ninto java objects. \nSuch as, Service Forms
Controllers -> Services : Launch transaction
Services -> Services : May call other services
Services -> FeignClients: May call other micro-service.
Services -> RepositoriesOrDAOs : May call repositories or daos\n to access DB
RepositoriesOrDAOs -> Entities : Retrieve entities
Entities -> DB : Exchange data
RepositoriesOrDAOs -> Services : Return entities for \nservices to manipulate
Services -> Controllers : Return value objects. \nSuch as, Views.
Controllers -> Interceptors : Do some final \nadjustment to data. \nSuch as, update HTTP\n headers.
Interceptors -> Browser: Return JSON HTTP response.

@enduml

PlantUML version 1.2017.16(Sun Sep 03 18:53:37 CST 2017)
(GPL source distribution)
Java Runtime: Java(TM) SE Runtime Environment
JVM: Java HotSpot(TM) 64-Bit Server VM
Java Version: 1.8.0_66-b18
Operating System: Windows 7
OS Version: 6.1
Default Encoding: UTF-8
Language: zh
Country: CN
--></g></svg>