<?xml version="1.0" encoding="UTF-8" standalone="no"?><svg xmlns="http://www.w3.org/2000/svg" xmlns:xlink="http://www.w3.org/1999/xlink" contentScriptType="application/ecmascript" contentStyleType="text/css" height="606.2926px" preserveAspectRatio="none" style="width:1032px;height:606px;" version="1.1" viewBox="0 0 1032 606" width="1032.8124px" zoomAndPan="magnify"><defs><filter height="300%" id="f81kvz002uscv" width="300%" x="-1" y="-1"><feGaussianBlur result="blurOut" stdDeviation="1.7624784853700517"/><feColorMatrix in="blurOut" result="blurOut2" type="matrix" values="0 0 0 0 0 0 0 0 0 0 0 0 0 0 0 0 0 0 .4 0"/><feOffset dx="3.5249569707401034" dy="3.5249569707401034" in="blurOut2" result="blurOut3"/><feBlend in="SourceGraphic" in2="blurOut3" mode="normal"/></filter></defs><g><line style="stroke: #A80036; stroke-width: 0.8812392426850258; stroke-dasharray: 5.0,5.0;" x1="33.4871" x2="33.4871" y1="57.7108" y2="541.9707"/><line style="stroke: #A80036; stroke-width: 0.8812392426850258; stroke-dasharray: 5.0,5.0;" x1="211.4974" x2="211.4974" y1="57.7108" y2="541.9707"/><line style="stroke: #A80036; stroke-width: 0.8812392426850258; stroke-dasharray: 5.0,5.0;" x1="358.6644" x2="358.6644" y1="57.7108" y2="541.9707"/><line style="stroke: #A80036; stroke-width: 0.8812392426850258; stroke-dasharray: 5.0,5.0;" x1="499.6627" x2="499.6627" y1="57.7108" y2="541.9707"/><line style="stroke: #A80036; stroke-width: 0.8812392426850258; stroke-dasharray: 5.0,5.0;" x1="682.9604" x2="682.9604" y1="57.7108" y2="541.9707"/><line style="stroke: #A80036; stroke-width: 0.8812392426850258; stroke-dasharray: 5.0,5.0;" x1="794.8778" x2="794.8778" y1="57.7108" y2="541.9707"/><line style="stroke: #A80036; stroke-width: 0.8812392426850258; stroke-dasharray: 5.0,5.0;" x1="905.0327" x2="905.0327" y1="57.7108" y2="541.9707"/><line style="stroke: #A80036; stroke-width: 0.8812392426850258; stroke-dasharray: 5.0,5.0;" x1="1006.3752" x2="1006.3752" y1="57.7108" y2="541.9707"/><text fill="#000000" font-family="sans-serif" font-size="12.3373" lengthAdjust="spacingAndGlyphs" textLength="48.4682" x="7.0499" y="55.1084">Browser</text><path d="M15.8623,18.506 L15.8623,39.6558 M15.8623,29.0809 L30.8434,29.0809 " fill="#FEFECE" filter="url(#f81kvz002uscv)" style="stroke: #A80036; stroke-width: 1.7624784853700517;"/><ellipse cx="41.4182" cy="29.0809" fill="#FEFECE" filter="url(#f81kvz002uscv)" rx="10.5749" ry="10.5749" style="stroke: #A80036; stroke-width: 1.7624784853700517;"/><text fill="#000000" font-family="sans-serif" font-size="12.3373" lengthAdjust="spacingAndGlyphs" textLength="48.4682" x="7.0499" y="553.0172">Browser</text><path d="M15.8623,559.1446 L15.8623,580.2943 M15.8623,569.7194 L30.8434,569.7194 " fill="#FEFECE" filter="url(#f81kvz002uscv)" style="stroke: #A80036; stroke-width: 1.7624784853700517;"/><ellipse cx="41.4182" cy="569.7194" fill="#FEFECE" filter="url(#f81kvz002uscv)" rx="10.5749" ry="10.5749" style="stroke: #A80036; stroke-width: 1.7624784853700517;"/><text fill="#000000" font-family="sans-serif" font-size="12.3373" lengthAdjust="spacingAndGlyphs" textLength="73.1429" x="172.7229" y="55.1084">Interceptors</text><ellipse cx="211.938" cy="29.0809" fill="#FEFECE" filter="url(#f81kvz002uscv)" rx="10.5749" ry="10.5749" style="stroke: #A80036; stroke-width: 1.7624784853700517;"/><polygon fill="#A80036" points="208.4131,18.506,213.7005,14.0998,211.938,18.506,213.7005,22.9122,208.4131,18.506" style="stroke: #A80036; stroke-width: 0.8812392426850258;"/><text fill="#000000" font-family="sans-serif" font-size="12.3373" lengthAdjust="spacingAndGlyphs" textLength="73.1429" x="172.7229" y="553.0172">Interceptors</text><ellipse cx="211.938" cy="569.7194" fill="#FEFECE" filter="url(#f81kvz002uscv)" rx="10.5749" ry="10.5749" style="stroke: #A80036; stroke-width: 1.7624784853700517;"/><polygon fill="#A80036" points="208.4131,559.1446,213.7005,554.7384,211.938,559.1446,213.7005,563.5508,208.4131,559.1446" style="stroke: #A80036; stroke-width: 0.8812392426850258;"/><text fill="#000000" font-family="sans-serif" font-size="12.3373" lengthAdjust="spacingAndGlyphs" textLength="67.8554" x="322.5336" y="55.1084">Controllers</text><ellipse cx="359.105" cy="29.0809" fill="#FEFECE" filter="url(#f81kvz002uscv)" rx="10.5749" ry="10.5749" style="stroke: #A80036; stroke-width: 1.7624784853700517;"/><polygon fill="#A80036" points="355.58,18.506,360.8675,14.0998,359.105,18.506,360.8675,22.9122,355.58,18.506" style="stroke: #A80036; stroke-width: 0.8812392426850258;"/><text fill="#000000" font-family="sans-serif" font-size="12.3373" lengthAdjust="spacingAndGlyphs" textLength="67.8554" x="322.5336" y="553.0172">Controllers</text><ellipse cx="359.105" cy="569.7194" fill="#FEFECE" filter="url(#f81kvz002uscv)" rx="10.5749" ry="10.5749" style="stroke: #A80036; stroke-width: 1.7624784853700517;"/><polygon fill="#A80036" points="355.58,559.1446,360.8675,554.7384,359.105,559.1446,360.8675,563.5508,355.58,559.1446" style="stroke: #A80036; stroke-width: 0.8812392426850258;"/><text fill="#000000" font-family="sans-serif" font-size="12.3373" lengthAdjust="spacingAndGlyphs" textLength="48.4682" x="473.2255" y="55.1084">Services</text><ellipse cx="500.1033" cy="29.0809" fill="#FEFECE" filter="url(#f81kvz002uscv)" rx="10.5749" ry="10.5749" style="stroke: #A80036; stroke-width: 1.7624784853700517;"/><polygon fill="#A80036" points="496.5783,18.506,501.8657,14.0998,500.1033,18.506,501.8657,22.9122,496.5783,18.506" style="stroke: #A80036; stroke-width: 0.8812392426850258;"/><text fill="#000000" font-family="sans-serif" font-size="12.3373" lengthAdjust="spacingAndGlyphs" textLength="48.4682" x="473.2255" y="553.0172">Services</text><ellipse cx="500.1033" cy="569.7194" fill="#FEFECE" filter="url(#f81kvz002uscv)" rx="10.5749" ry="10.5749" style="stroke: #A80036; stroke-width: 1.7624784853700517;"/><polygon fill="#A80036" points="496.5783,559.1446,501.8657,554.7384,500.1033,559.1446,501.8657,563.5508,496.5783,559.1446" style="stroke: #A80036; stroke-width: 0.8812392426850258;"/><text fill="#000000" font-family="sans-serif" font-size="12.3373" lengthAdjust="spacingAndGlyphs" textLength="74.9053" x="643.3046" y="55.1084">FeignClients</text><ellipse cx="683.401" cy="29.0809" fill="#FEFECE" filter="url(#f81kvz002uscv)" rx="10.5749" ry="10.5749" style="stroke: #A80036; stroke-width: 1.7624784853700517;"/><polygon fill="#A80036" points="679.8761,18.506,685.1635,14.0998,683.401,18.506,685.1635,22.9122,679.8761,18.506" style="stroke: #A80036; stroke-width: 0.8812392426850258;"/><text fill="#000000" font-family="sans-serif" font-size="12.3373" lengthAdjust="spacingAndGlyphs" textLength="74.9053" x="643.3046" y="553.0172">FeignClients</text><ellipse cx="683.401" cy="569.7194" fill="#FEFECE" filter="url(#f81kvz002uscv)" rx="10.5749" ry="10.5749" style="stroke: #A80036; stroke-width: 1.7624784853700517;"/><polygon fill="#A80036" points="679.8761,559.1446,685.1635,554.7384,683.401,559.1446,685.1635,563.5508,679.8761,559.1446" style="stroke: #A80036; stroke-width: 0.8812392426850258;"/><text fill="#000000" font-family="sans-serif" font-size="12.3373" lengthAdjust="spacingAndGlyphs" textLength="119.8485" x="732.3098" y="55.1084">RepositoriesOrDaos</text><ellipse cx="794.8778" cy="29.0809" fill="#FEFECE" filter="url(#f81kvz002uscv)" rx="10.5749" ry="10.5749" style="stroke: #A80036; stroke-width: 1.7624784853700517;"/><polygon fill="#A80036" points="791.3528,18.506,796.6403,14.0998,794.8778,18.506,796.6403,22.9122,791.3528,18.506" style="stroke: #A80036; stroke-width: 0.8812392426850258;"/><text fill="#000000" font-family="sans-serif" font-size="12.3373" lengthAdjust="spacingAndGlyphs" textLength="119.8485" x="732.3098" y="553.0172">RepositoriesOrDaos</text><ellipse cx="794.8778" cy="569.7194" fill="#FEFECE" filter="url(#f81kvz002uscv)" rx="10.5749" ry="10.5749" style="stroke: #A80036; stroke-width: 1.7624784853700517;"/><polygon fill="#A80036" points="791.3528,559.1446,796.6403,554.7384,794.8778,559.1446,796.6403,563.5508,791.3528,559.1446" style="stroke: #A80036; stroke-width: 0.8812392426850258;"/><text fill="#000000" font-family="sans-serif" font-size="12.3373" lengthAdjust="spacingAndGlyphs" textLength="44.062" x="880.358" y="55.1084">Entities</text><ellipse cx="905.0327" cy="29.0809" fill="#FEFECE" filter="url(#f81kvz002uscv)" rx="10.5749" ry="10.5749" style="stroke: #A80036; stroke-width: 1.7624784853700517;"/><line style="stroke: #A80036; stroke-width: 1.7624784853700517;" x1="894.4578" x2="915.6076" y1="41.4182" y2="41.4182"/><text fill="#000000" font-family="sans-serif" font-size="12.3373" lengthAdjust="spacingAndGlyphs" textLength="44.062" x="880.358" y="553.0172">Entities</text><ellipse cx="905.0327" cy="569.7194" fill="#FEFECE" filter="url(#f81kvz002uscv)" rx="10.5749" ry="10.5749" style="stroke: #A80036; stroke-width: 1.7624784853700517;"/><line style="stroke: #A80036; stroke-width: 1.7624784853700517;" x1="894.4578" x2="915.6076" y1="582.0568" y2="582.0568"/><text fill="#000000" font-family="sans-serif" font-size="12.3373" lengthAdjust="spacingAndGlyphs" textLength="15.8623" x="995.8003" y="55.1084">DB</text><path d="M990.5129,11.4561 C990.5129,2.6437 1006.3752,2.6437 1006.3752,2.6437 C1006.3752,2.6437 1022.2375,2.6437 1022.2375,11.4561 L1022.2375,34.3683 C1022.2375,43.1807 1006.3752,43.1807 1006.3752,43.1807 C1006.3752,43.1807 990.5129,43.1807 990.5129,34.3683 L990.5129,11.4561 " fill="#FEFECE" filter="url(#f81kvz002uscv)" style="stroke: #000000; stroke-width: 1.3218588640275388;"/><path d="M990.5129,11.4561 C990.5129,20.2685 1006.3752,20.2685 1006.3752,20.2685 C1006.3752,20.2685 1022.2375,20.2685 1022.2375,11.4561 " fill="none" style="stroke: #000000; stroke-width: 1.3218588640275388;"/><text fill="#000000" font-family="sans-serif" font-size="12.3373" lengthAdjust="spacingAndGlyphs" textLength="15.8623" x="995.8003" y="553.0172">DB</text><path d="M990.5129,564.432 C990.5129,555.6196 1006.3752,555.6196 1006.3752,555.6196 C1006.3752,555.6196 1022.2375,555.6196 1022.2375,564.432 L1022.2375,587.3442 C1022.2375,596.1566 1006.3752,596.1566 1006.3752,596.1566 C1006.3752,596.1566 990.5129,596.1566 990.5129,587.3442 L990.5129,564.432 " fill="#FEFECE" filter="url(#f81kvz002uscv)" style="stroke: #000000; stroke-width: 1.3218588640275388;"/><path d="M990.5129,564.432 C990.5129,573.2444 1006.3752,573.2444 1006.3752,573.2444 C1006.3752,573.2444 1022.2375,573.2444 1022.2375,564.432 " fill="none" style="stroke: #000000; stroke-width: 1.3218588640275388;"/><polygon fill="#A80036" points="201.3632,81.5043,210.1756,85.0293,201.3632,88.5542,204.8881,85.0293" style="stroke: #A80036; stroke-width: 0.8812392426850258;"/><line style="stroke: #A80036; stroke-width: 0.8812392426850258;" x1="33.9277" x2="206.6506" y1="85.0293" y2="85.0293"/><text fill="#000000" font-family="sans-serif" font-size="11.4561" lengthAdjust="spacingAndGlyphs" textLength="107.5112" x="40.0964" y="81.1239">JSON HTTP Request</text><line style="stroke: #A80036; stroke-width: 0.8812392426850258;" x1="211.938" x2="248.9501" y1="111.1325" y2="111.1325"/><line style="stroke: #A80036; stroke-width: 0.8812392426850258;" x1="248.9501" x2="248.9501" y1="111.1325" y2="122.5886"/><line style="stroke: #A80036; stroke-width: 0.8812392426850258;" x1="212.8193" x2="248.9501" y1="122.5886" y2="122.5886"/><polygon fill="#A80036" points="221.6317,119.0637,212.8193,122.5886,221.6317,126.1136,218.1067,122.5886" style="stroke: #A80036; stroke-width: 0.8812392426850258;"/><text fill="#000000" font-family="sans-serif" font-size="11.4561" lengthAdjust="spacingAndGlyphs" textLength="97.8176" x="218.1067" y="106.9535">Security checking</text><polygon fill="#A80036" points="348.5301,171.0568,357.3425,174.5818,348.5301,178.1067,352.0551,174.5818" style="stroke: #A80036; stroke-width: 0.8812392426850258;"/><line style="stroke: #A80036; stroke-width: 0.8812392426850258;" x1="211.938" x2="353.8176" y1="174.5818" y2="174.5818"/><text fill="#000000" font-family="sans-serif" font-size="11.4561" lengthAdjust="spacingAndGlyphs" textLength="106.6299" x="218.1067" y="144.2392">Parse HTTP request</text><text fill="#000000" font-family="sans-serif" font-size="11.4561" lengthAdjust="spacingAndGlyphs" textLength="95.1738" x="218.1067" y="157.7315">into java objects.</text><text fill="#000000" font-family="sans-serif" font-size="11.4561" lengthAdjust="spacingAndGlyphs" textLength="126.0172" x="218.1067" y="171.2238">Such as, Service Forms</text><polygon fill="#A80036" points="489.5284,197.4337,498.3408,200.9587,489.5284,204.4836,493.0534,200.9587" style="stroke: #A80036; stroke-width: 0.8812392426850258;"/><line style="stroke: #A80036; stroke-width: 0.8812392426850258;" x1="359.105" x2="494.8158" y1="200.9587" y2="200.9587"/><text fill="#000000" font-family="sans-serif" font-size="11.4561" lengthAdjust="spacingAndGlyphs" textLength="105.7487" x="365.2737" y="197.0534">Launch transaction</text><line style="stroke: #A80036; stroke-width: 0.8812392426850258;" x1="500.1033" x2="537.1153" y1="227.062" y2="227.062"/><line style="stroke: #A80036; stroke-width: 0.8812392426850258;" x1="537.1153" x2="537.1153" y1="227.062" y2="238.5181"/><line style="stroke: #A80036; stroke-width: 0.8812392426850258;" x1="500.9845" x2="537.1153" y1="238.5181" y2="238.5181"/><polygon fill="#A80036" points="509.7969,234.9931,500.9845,238.5181,509.7969,242.043,506.2719,238.5181" style="stroke: #A80036; stroke-width: 0.8812392426850258;"/><text fill="#000000" font-family="sans-serif" font-size="11.4561" lengthAdjust="spacingAndGlyphs" textLength="126.0172" x="506.2719" y="222.883">May call other services</text><polygon fill="#A80036" points="672.8262,260.5491,681.6386,264.074,672.8262,267.599,676.3511,264.074" style="stroke: #A80036; stroke-width: 0.8812392426850258;"/><line style="stroke: #A80036; stroke-width: 0.8812392426850258;" x1="500.1033" x2="678.1136" y1="264.074" y2="264.074"/><text fill="#000000" font-family="sans-serif" font-size="11.4561" lengthAdjust="spacingAndGlyphs" textLength="162.148" x="506.2719" y="260.1687">May call other micro-service.</text><polygon fill="#A80036" points="784.3029,299.5972,793.1153,303.1222,784.3029,306.6472,787.8279,303.1222" style="stroke: #A80036; stroke-width: 0.8812392426850258;"/><line style="stroke: #A80036; stroke-width: 0.8812392426850258;" x1="500.1033" x2="789.5904" y1="303.1222" y2="303.1222"/><text fill="#000000" font-family="sans-serif" font-size="11.4561" lengthAdjust="spacingAndGlyphs" textLength="159.5043" x="506.2719" y="285.9983">May call repositories or daos</text><text fill="#000000" font-family="sans-serif" font-size="11.4561" lengthAdjust="spacingAndGlyphs" textLength="70.4991" x="509.7969" y="299.4905">to access DB</text><polygon fill="#A80036" points="894.4578,325.7005,903.2702,329.2255,894.4578,332.7504,897.9828,329.2255" style="stroke: #A80036; stroke-width: 0.8812392426850258;"/><line style="stroke: #A80036; stroke-width: 0.8812392426850258;" x1="794.8778" x2="899.7453" y1="329.2255" y2="329.2255"/><text fill="#000000" font-family="sans-serif" font-size="11.4561" lengthAdjust="spacingAndGlyphs" textLength="89.0052" x="801.0465" y="325.3201">Retrieve entities</text><polygon fill="#A80036" points="995.8003,351.5301,1004.6127,355.0551,995.8003,358.58,999.3253,355.0551" style="stroke: #A80036; stroke-width: 0.8812392426850258;"/><line style="stroke: #A80036; stroke-width: 0.8812392426850258;" x1="905.0327" x2="1001.0878" y1="355.0551" y2="355.0551"/><text fill="#000000" font-family="sans-serif" font-size="11.4561" lengthAdjust="spacingAndGlyphs" textLength="80.1928" x="911.2014" y="351.1497">Exchange data</text><polygon fill="#A80036" points="509.7969,390.5783,500.9845,394.1033,509.7969,397.6282,506.2719,394.1033" style="stroke: #A80036; stroke-width: 0.8812392426850258;"/><line style="stroke: #A80036; stroke-width: 0.8812392426850258;" x1="504.5095" x2="793.9966" y1="394.1033" y2="394.1033"/><text fill="#000000" font-family="sans-serif" font-size="11.4561" lengthAdjust="spacingAndGlyphs" textLength="100.4613" x="515.0843" y="376.9793">Return entities for</text><text fill="#000000" font-family="sans-serif" font-size="11.4561" lengthAdjust="spacingAndGlyphs" textLength="125.136" x="515.0843" y="390.4716">services to manipulate</text><polygon fill="#A80036" points="368.7986,429.9002,359.9862,433.4251,368.7986,436.9501,365.2737,433.4251" style="stroke: #A80036; stroke-width: 0.8812392426850258;"/><line style="stroke: #A80036; stroke-width: 0.8812392426850258;" x1="363.5112" x2="499.222" y1="433.4251" y2="433.4251"/><text fill="#000000" font-family="sans-serif" font-size="11.4561" lengthAdjust="spacingAndGlyphs" textLength="116.3236" x="374.0861" y="416.3012">Return value objects.</text><text fill="#000000" font-family="sans-serif" font-size="11.4561" lengthAdjust="spacingAndGlyphs" textLength="84.599" x="374.0861" y="429.7935">Such as, Views.</text><polygon fill="#A80036" points="221.6317,496.5404,212.8193,500.0654,221.6317,503.5904,218.1067,500.0654" style="stroke: #A80036; stroke-width: 0.8812392426850258;"/><line style="stroke: #A80036; stroke-width: 0.8812392426850258;" x1="216.3442" x2="358.2238" y1="500.0654" y2="500.0654"/><text fill="#000000" font-family="sans-serif" font-size="11.4561" lengthAdjust="spacingAndGlyphs" textLength="77.5491" x="226.9191" y="455.6231">Do some final</text><text fill="#000000" font-family="sans-serif" font-size="11.4561" lengthAdjust="spacingAndGlyphs" textLength="108.3924" x="226.9191" y="469.1153">adjustment to data.</text><text fill="#000000" font-family="sans-serif" font-size="11.4561" lengthAdjust="spacingAndGlyphs" textLength="119.8485" x="226.9191" y="482.6076">Such as, update HTTP</text><text fill="#000000" font-family="sans-serif" font-size="11.4561" lengthAdjust="spacingAndGlyphs" textLength="46.7057" x="230.4441" y="496.0998">headers.</text><polygon fill="#A80036" points="43.6213,522.3098,34.809,525.8348,43.6213,529.3597,40.0964,525.8348" style="stroke: #A80036; stroke-width: 0.8812392426850258;"/><line style="stroke: #A80036; stroke-width: 0.8812392426850258;" x1="38.3339" x2="211.0568" y1="525.8348" y2="525.8348"/><text fill="#000000" font-family="sans-serif" font-size="11.4561" lengthAdjust="spacingAndGlyphs" textLength="156.8606" x="48.9088" y="521.9294">Return JSON HTTP response.</text><!--
@startuml

scale max 1024 width

boundary Browser
control Interceptors
control Controllers
control Services
control FeignClients
control RepositoriesOrDaos
entity Entities
database DB

Browser -> Interceptors : JSON HTTP Request
Interceptors -> Interceptors : Security checking
Interceptors -> Controllers : Parse HTTP request \ninto java objects. \nSuch as, Service Forms
Controllers -> Services : Launch transaction
Services -> Services : May call other services
Services -> FeignClients: May call other micro-service.
Services -> RepositoriesOrDaos : May call repositories or daos\n to access DB
RepositoriesOrDaos -> Entities : Retrieve entities
Entities -> DB : Exchange data
RepositoriesOrDaos -> Services : Return entities for \nservices to manipulate
Services -> Controllers : Return value objects. \nSuch as, Views.
Controllers -> Interceptors : Do some final \nadjustment to data. \nSuch as, update HTTP\n headers.
Interceptors -> Browser: Return JSON HTTP response.

@enduml

PlantUML version 1.2017.16(Sun Sep 03 18:53:37 CST 2017)
(GPL source distribution)
Java Runtime: Java(TM) SE Runtime Environment
JVM: Java HotSpot(TM) 64-Bit Server VM
Java Version: 1.8.0_144-b01
Operating System: Mac OS X
OS Version: 10.12.6
Default Encoding: UTF-8
Language: en
Country: US
--></g></svg>