<?xml version="1.0" encoding="UTF-8" standalone="no"?><svg xmlns="http://www.w3.org/2000/svg" xmlns:xlink="http://www.w3.org/1999/xlink" contentScriptType="application/ecmascript" contentStyleType="text/css" height="695.8231px" preserveAspectRatio="none" style="width:794px;height:695px;" version="1.1" viewBox="0 0 794 695" width="794.1032px" zoomAndPan="magnify"><defs><filter height="1" id="bfmhsv9o8cvg10" width="1" x="0" y="0"><feFlood flood-color="#FF0000" result="flood"/><feComposite in="SourceGraphic" in2="flood" operator="over"/></filter><filter height="1" id="bfmhsv9o8cvg11" width="1" x="0" y="0"><feFlood flood-color="#90EE90" result="flood"/><feComposite in="SourceGraphic" in2="flood" operator="over"/></filter><filter height="1" id="bfmhsv9o8cvg12" width="1" x="0" y="0"><feFlood flood-color="#FFFF00" result="flood"/><feComposite in="SourceGraphic" in2="flood" operator="over"/></filter><filter height="1" id="bfmhsv9o8cvg13" width="1" x="0" y="0"><feFlood flood-color="#FFFFFF" result="flood"/><feComposite in="SourceGraphic" in2="flood" operator="over"/></filter><filter height="1" id="bfmhsv9o8cvg14" width="1" x="0" y="0"><feFlood flood-color="#87CEEB" result="flood"/><feComposite in="SourceGraphic" in2="flood" operator="over"/></filter><filter height="300%" id="ffmhsv9o8cvg1" width="300%" x="-1" y="-1"><feGaussianBlur result="blurOut" stdDeviation="1.9656019656019657"/><feColorMatrix in="blurOut" result="blurOut2" type="matrix" values="0 0 0 0 0 0 0 0 0 0 0 0 0 0 0 0 0 0 .4 0"/><feOffset dx="3.9312039312039313" dy="3.9312039312039313" in="blurOut2" result="blurOut3"/><feBlend in="SourceGraphic" in2="blurOut3" mode="normal"/></filter></defs><g><text fill="#000000" font-family="sans-serif" font-size="17.6904" font-weight="bold" lengthAdjust="spacingAndGlyphs" textLength="160.1966" x="157.2482" y="19.0686">background color</text><text fill="#000000" font-family="sans-serif" font-size="17.6904" font-weight="bold" lengthAdjust="spacingAndGlyphs" textLength="79.6069" x="352.8256" y="19.0686">meaning</text><text fill="#000000" font-family="sans-serif" font-size="17.6904" lengthAdjust="spacingAndGlyphs" textLength="0" x="157.2482" y="39.9033"/><text fill="#000000" filter="url(#bfmhsv9o8cvg10)" font-family="sans-serif" font-size="17.6904" lengthAdjust="spacingAndGlyphs" textLength="27.5184" x="157.2482" y="39.9033">red</text><text fill="#000000" font-family="sans-serif" font-size="17.6904" lengthAdjust="spacingAndGlyphs" textLength="0" x="196.5602" y="39.9033"/><text fill="#000000" font-family="sans-serif" font-size="17.6904" lengthAdjust="spacingAndGlyphs" textLength="242.7518" x="352.8256" y="39.9033">belongs to V in MVC pattern</text><text fill="#000000" font-family="sans-serif" font-size="17.6904" lengthAdjust="spacingAndGlyphs" textLength="0" x="157.2482" y="60.7379"/><text fill="#000000" filter="url(#bfmhsv9o8cvg11)" font-family="sans-serif" font-size="17.6904" lengthAdjust="spacingAndGlyphs" textLength="92.3833" x="157.2482" y="60.7379">light green</text><text fill="#000000" font-family="sans-serif" font-size="17.6904" lengthAdjust="spacingAndGlyphs" textLength="0" x="261.4251" y="60.7379"/><text fill="#000000" font-family="sans-serif" font-size="17.6904" lengthAdjust="spacingAndGlyphs" textLength="242.7518" x="352.8256" y="60.7379">belongs to C in MVC pattern</text><text fill="#000000" font-family="sans-serif" font-size="17.6904" lengthAdjust="spacingAndGlyphs" textLength="0" x="157.2482" y="81.5725"/><text fill="#000000" filter="url(#bfmhsv9o8cvg12)" font-family="sans-serif" font-size="17.6904" lengthAdjust="spacingAndGlyphs" textLength="53.0713" x="157.2482" y="81.5725">yellow</text><text fill="#000000" font-family="sans-serif" font-size="17.6904" lengthAdjust="spacingAndGlyphs" textLength="0" x="222.113" y="81.5725"/><text fill="#000000" font-family="sans-serif" font-size="17.6904" lengthAdjust="spacingAndGlyphs" textLength="246.683" x="352.8256" y="81.5725">belongs to M in MVC pattern</text><text fill="#000000" font-family="sans-serif" font-size="17.6904" lengthAdjust="spacingAndGlyphs" textLength="0" x="157.2482" y="102.4071"/><text fill="#000000" filter="url(#bfmhsv9o8cvg13)" font-family="sans-serif" font-size="17.6904" lengthAdjust="spacingAndGlyphs" textLength="46.1916" x="157.2482" y="102.4071">white</text><text fill="#000000" font-family="sans-serif" font-size="17.6904" lengthAdjust="spacingAndGlyphs" textLength="0" x="215.2334" y="102.4071"/><text fill="#000000" font-family="sans-serif" font-size="17.6904" lengthAdjust="spacingAndGlyphs" textLength="111.0565" x="352.8256" y="102.4071">value objects</text><text fill="#000000" font-family="sans-serif" font-size="17.6904" lengthAdjust="spacingAndGlyphs" textLength="0" x="157.2482" y="123.2417"/><text fill="#000000" filter="url(#bfmhsv9o8cvg14)" font-family="sans-serif" font-size="17.6904" lengthAdjust="spacingAndGlyphs" textLength="64.8649" x="157.2482" y="123.2417">skyblue</text><text fill="#000000" font-family="sans-serif" font-size="17.6904" lengthAdjust="spacingAndGlyphs" textLength="0" x="233.9066" y="123.2417"/><text fill="#000000" font-family="sans-serif" font-size="17.6904" lengthAdjust="spacingAndGlyphs" textLength="83.5381" x="352.8256" y="123.2417">interfaces</text><line style="stroke: #000000; stroke-width: 0.9828009828009828;" x1="151.3514" x2="648.6486" y1="1.9656" y2="1.9656"/><line style="stroke: #000000; stroke-width: 0.9828009828009828;" x1="151.3514" x2="648.6486" y1="22.8002" y2="22.8002"/><line style="stroke: #000000; stroke-width: 0.9828009828009828;" x1="151.3514" x2="648.6486" y1="43.6348" y2="43.6348"/><line style="stroke: #000000; stroke-width: 0.9828009828009828;" x1="151.3514" x2="648.6486" y1="64.4694" y2="64.4694"/><line style="stroke: #000000; stroke-width: 0.9828009828009828;" x1="151.3514" x2="648.6486" y1="85.3041" y2="85.3041"/><line style="stroke: #000000; stroke-width: 0.9828009828009828;" x1="151.3514" x2="648.6486" y1="106.1387" y2="106.1387"/><line style="stroke: #000000; stroke-width: 0.9828009828009828;" x1="151.3514" x2="648.6486" y1="126.9733" y2="126.9733"/><line style="stroke: #000000; stroke-width: 0.9828009828009828;" x1="151.3514" x2="151.3514" y1="1.9656" y2="126.9733"/><line style="stroke: #000000; stroke-width: 0.9828009828009828;" x1="346.9287" x2="346.9287" y1="1.9656" y2="126.9733"/><line style="stroke: #000000; stroke-width: 0.9828009828009828;" x1="648.6486" x2="648.6486" y1="1.9656" y2="126.9733"/><!--cluster ##9--><!--cluster ##13--><!--cluster ##19--><!--cluster ##21--><!--class ServiceForms--><rect fill="#FFFFFF" filter="url(#ffmhsv9o8cvg1)" height="23.7178" id="ServiceForms" style="stroke: #A80036; stroke-width: 1.4742014742014742;" width="79.6069" x="550.86" y="661.617"/><rect fill="#FFFFFF" height="23.7178" style="stroke: #A80036; stroke-width: 1.4742014742014742;" width="79.6069" x="550.86" y="661.617"/><text fill="#000000" font-family="sans-serif" font-size="11.7936" lengthAdjust="spacingAndGlyphs" textLength="73.7101" x="553.8084" y="677.933">ServiceForms</text><!--class Views--><rect fill="#FFFFFF" filter="url(#ffmhsv9o8cvg1)" height="23.7178" id="Views" style="stroke: #A80036; stroke-width: 1.4742014742014742;" width="38.3292" x="664.8649" y="661.617"/><rect fill="#FFFFFF" height="23.7178" style="stroke: #A80036; stroke-width: 1.4742014742014742;" width="38.3292" x="664.8649" y="661.617"/><text fill="#000000" font-family="sans-serif" font-size="11.7936" lengthAdjust="spacingAndGlyphs" textLength="32.4324" x="667.8133" y="677.933">Views</text><!--class Browsers--><rect fill="#FF0000" filter="url(#ffmhsv9o8cvg1)" height="23.7178" id="Browsers" style="stroke: #A80036; stroke-width: 1.4742014742014742;" width="57.0025" x="470.7617" y="152.5261"/><rect fill="#FF0000" height="23.7178" style="stroke: #A80036; stroke-width: 1.4742014742014742;" width="57.0025" x="470.7617" y="152.5261"/><text fill="#000000" font-family="sans-serif" font-size="11.7936" lengthAdjust="spacingAndGlyphs" textLength="51.1057" x="473.7101" y="168.8421">Browsers</text><!--class Controllers--><rect fill="#90EE90" filter="url(#ffmhsv9o8cvg1)" height="23.7178" id="Controllers" style="stroke: #A80036; stroke-width: 1.4742014742014742;" width="66.8305" x="495.3317" y="312.7227"/><rect fill="#90EE90" height="23.7178" style="stroke: #A80036; stroke-width: 1.4742014742014742;" width="66.8305" x="495.3317" y="312.7227"/><text fill="#000000" font-family="sans-serif" font-size="11.7936" lengthAdjust="spacingAndGlyphs" textLength="60.9337" x="498.2801" y="329.0387">Controllers</text><!--class Services--><rect fill="#FFFF00" filter="url(#ffmhsv9o8cvg1)" height="23.7178" id="Services" style="stroke: #A80036; stroke-width: 1.4742014742014742;" width="51.1057" x="458.9681" y="474.3934"/><rect fill="#FFFF00" height="23.7178" style="stroke: #A80036; stroke-width: 1.4742014742014742;" width="51.1057" x="458.9681" y="474.3934"/><text fill="#000000" font-family="sans-serif" font-size="11.7936" lengthAdjust="spacingAndGlyphs" textLength="45.2088" x="461.9165" y="490.7095">Services</text><!--class Daos--><rect fill="#FFFF00" filter="url(#ffmhsv9o8cvg1)" height="23.7178" id="Daos" style="stroke: #A80036; stroke-width: 1.4742014742014742;" width="34.398" x="22.113" y="576.6047"/><rect fill="#FFFF00" height="23.7178" style="stroke: #A80036; stroke-width: 1.4742014742014742;" width="34.398" x="22.113" y="576.6047"/><text fill="#000000" font-family="sans-serif" font-size="11.7936" lengthAdjust="spacingAndGlyphs" textLength="28.5012" x="25.0614" y="592.9208">Daos</text><!--class Entities--><rect fill="#FFFF00" filter="url(#ffmhsv9o8cvg1)" height="23.7178" id="Entities" style="stroke: #A80036; stroke-width: 1.4742014742014742;" width="46.1916" x="139.0663" y="576.6047"/><rect fill="#FFFF00" height="23.7178" style="stroke: #A80036; stroke-width: 1.4742014742014742;" width="46.1916" x="139.0663" y="576.6047"/><text fill="#000000" font-family="sans-serif" font-size="11.7936" lengthAdjust="spacingAndGlyphs" textLength="40.2948" x="142.0147" y="592.9208">Entities</text><!--class Repositories--><rect fill="#FFFF00" filter="url(#ffmhsv9o8cvg1)" height="23.7178" id="Repositories" style="stroke: #A80036; stroke-width: 1.4742014742014742;" width="75.6757" x="337.5921" y="576.6047"/><rect fill="#FFFF00" height="23.7178" style="stroke: #A80036; stroke-width: 1.4742014742014742;" width="75.6757" x="337.5921" y="576.6047"/><text fill="#000000" font-family="sans-serif" font-size="11.7936" lengthAdjust="spacingAndGlyphs" textLength="69.7789" x="340.5405" y="592.9208">Repositories</text><!--class FeignClients--><rect fill="#87CEEB" filter="url(#ffmhsv9o8cvg1)" height="23.7178" id="FeignClients" style="stroke: #A80036; stroke-width: 1.4742014742014742;" width="72.7273" x="517.9361" y="576.6047"/><rect fill="#87CEEB" height="23.7178" style="stroke: #A80036; stroke-width: 1.4742014742014742;" width="72.7273" x="517.9361" y="576.6047"/><text fill="#000000" font-family="sans-serif" font-size="11.7936" lengthAdjust="spacingAndGlyphs" textLength="66.8305" x="520.8845" y="592.9208">FeignClients</text><!--link Browsers to Controllers--><path d="M501.479,176.3605 C506.6656,204.5409 519.6073,274.8574 525.6045,307.4423 " fill="none" id="Browsers-Controllers" style="stroke: #A80036; stroke-width: 0.9828009828009828; stroke-dasharray: 7.0,7.0;"/><polygon fill="#A80036" points="526.5052,312.3357,528.7702,302.925,525.6156,307.5029,521.0377,304.3483,526.5052,312.3357" style="stroke: #A80036; stroke-width: 0.9828009828009828;"/><text fill="#000000" font-family="sans-serif" font-size="12.7764" lengthAdjust="spacingAndGlyphs" textLength="89.4349" x="516.9533" y="249.3992">HTTP requests</text><!--link Controllers to Services--><path d="M525.4948,336.4043 C517.7315,364.7839 498.0964,436.561 489.1229,469.3641 " fill="none" id="Controllers-Services" style="stroke: #A80036; stroke-width: 0.9828009828009828; stroke-dasharray: 7.0,7.0;"/><polygon fill="#A80036" points="487.7777,474.2816,493.9036,466.7873,489.0744,469.5418,486.3199,464.7125,487.7777,474.2816" style="stroke: #A80036; stroke-width: 0.9828009828009828;"/><text fill="#000000" font-family="sans-serif" font-size="12.7764" lengthAdjust="spacingAndGlyphs" textLength="21.6216" x="510.0737" y="409.5957">call</text><!--link Services to Services--><path d="M510.09,478.8317 C527.4636,476.6829 544.4717,479.1347 544.4717,486.187 C544.4717,492.5232 530.7429,495.1458 515.3548,494.0548 " fill="none" id="Services-Services" style="stroke: #A80036; stroke-width: 0.9828009828009828; stroke-dasharray: 7.0,7.0;"/><polygon fill="#A80036" points="510.09,493.5424,518.5129,498.3118,514.9809,494.0184,519.2744,490.4864,510.09,493.5424" style="stroke: #A80036; stroke-width: 0.9828009828009828;"/><text fill="#000000" font-family="sans-serif" font-size="12.7764" lengthAdjust="spacingAndGlyphs" textLength="51.1057" x="550.3686" y="491.1682">may call</text><!--link Services to Repositories--><path d="M458.9611,490.5858 C436.6054,495.8093 405.0083,506.7791 387.2236,528.9389 C377.6559,540.8604 375.1486,558.3951 374.7699,571.3356 " fill="none" id="Services-Repositories" style="stroke: #A80036; stroke-width: 0.9828009828009828; stroke-dasharray: 7.0,7.0;"/><polygon fill="#A80036" points="374.7236,576.5705,378.7333,567.7606,374.7673,571.6567,370.8712,567.6907,374.7236,576.5705" style="stroke: #A80036; stroke-width: 0.9828009828009828;"/><text fill="#000000" font-family="sans-serif" font-size="12.7764" lengthAdjust="spacingAndGlyphs" textLength="51.1057" x="388.2064" y="542.2739">may call</text><!--link Services to Daos--><path d="M458.8119,490.1709 C399.1805,499.6757 247.0592,525.4441 122.8501,559.4057 C101.7808,565.1665 78.3268,573.4795 61.6472,579.7284 " fill="none" id="Services-Daos" style="stroke: #A80036; stroke-width: 0.9828009828009828; stroke-dasharray: 7.0,7.0;"/><polygon fill="#A80036" points="56.6983,581.5962,66.3619,582.1505,61.2957,579.8608,63.5853,574.7946,56.6983,581.5962" style="stroke: #A80036; stroke-width: 0.9828009828009828;"/><text fill="#000000" font-family="sans-serif" font-size="12.7764" lengthAdjust="spacingAndGlyphs" textLength="51.1057" x="242.7518" y="542.2739">may call</text><!--link Services to FeignClients--><path d="M492.7994,498.3134 C505.4046,516.7773 529.4194,551.9537 543.4196,572.4611 " fill="none" id="Services-FeignClients" style="stroke: #A80036; stroke-width: 0.9828009828009828; stroke-dasharray: 7.0,7.0;"/><polygon fill="#A80036" points="546.2474,576.6033,544.5071,567.0815,543.4768,572.5448,538.0135,571.5145,546.2474,576.6033" style="stroke: #A80036; stroke-width: 0.9828009828009828;"/><text fill="#000000" font-family="sans-serif" font-size="12.7764" lengthAdjust="spacingAndGlyphs" textLength="51.1057" x="524.8157" y="542.2739">may call</text><!--link Daos to Entities--><path d="M56.6529,588.3983 C76.7827,588.3983 110.263,588.3983 134.1087,588.3983 " fill="none" id="Daos-Entities" style="stroke: #A80036; stroke-width: 0.9828009828009828;"/><polygon fill="#A80036" points="139.0426,588.3983,130.1973,584.4671,134.1286,588.3983,130.1973,592.3295,139.0426,588.3983" style="stroke: #A80036; stroke-width: 0.9828009828009828;"/><text fill="#000000" font-family="sans-serif" font-size="12.7764" lengthAdjust="spacingAndGlyphs" textLength="46.1916" x="74.6929" y="582.0773">retrieve</text><!--link Entities to Repositories--><path d="M190.7614,588.3983 C228.6271,588.3983 295.5016,588.3983 337.5372,588.3983 " fill="none" id="Entities-Repositories" style="stroke: #A80036; stroke-width: 0.9828009828009828;"/><polygon fill="#A80036" points="185.3915,588.3983,194.2368,592.3295,190.3056,588.3983,194.2368,584.4671,185.3915,588.3983" style="stroke: #A80036; stroke-width: 0.9828009828009828;"/><text fill="#000000" font-family="sans-serif" font-size="12.7764" lengthAdjust="spacingAndGlyphs" textLength="46.1916" x="238.3292" y="582.0773">retrieve</text><!--link Entities to Entities--><path d="M185.4858,581.2052 C202.5542,578.7794 219.656,581.177 219.656,588.3983 C219.656,593.7579 210.2356,596.4604 198.4002,596.5059 " fill="none" id="Entities-Entities" style="stroke: #A80036; stroke-width: 0.9828009828009828;"/><polygon fill="#FFFFFF" points="185.4858,595.5915,191.0902,599.9294,197.25,596.4245,191.6456,592.0866,185.4858,595.5915" style="stroke: #A80036; stroke-width: 0.9828009828009828;"/><text fill="#000000" font-family="sans-serif" font-size="12.7764" lengthAdjust="spacingAndGlyphs" textLength="40.2948" x="225.5528" y="593.3795">link to</text><!--link Controllers to Views--><path d="M562.4181,328.0109 C631.3921,336.1057 782.3096,359.0262 782.3096,404.6146 C782.3096,404.6146 782.3096,404.6146 782.3096,588.3983 C782.3096,627.4257 737.4311,652.5274 708.3274,664.7026 " fill="none" id="Controllers-Views" style="stroke: #A80036; stroke-width: 0.9828009828009828; stroke-dasharray: 7.0,7.0;"/><polygon fill="#A80036" points="703.4465,666.6861,713.1209,666.998,707.9989,664.8361,710.1609,659.7141,703.4465,666.6861" style="stroke: #A80036; stroke-width: 0.9828009828009828;"/><!--link Controllers to ServiceForms--><path d="M562.3355,332.7449 C595.9642,343.2291 642.7518,364.9442 642.7518,404.6146 C642.7518,404.6146 642.7518,404.6146 642.7518,537.2927 C642.7518,583.2657 616.5139,632.5469 601.2818,657.283 " fill="none" id="Controllers-ServiceForms" style="stroke: #A80036; stroke-width: 0.9828009828009828; stroke-dasharray: 7.0,7.0;"/><polygon fill="#A80036" points="598.5745,661.6097,606.5989,656.1966,601.181,657.444,599.9336,652.0262,598.5745,661.6097" style="stroke: #A80036; stroke-width: 0.9828009828009828;"/><!--link Services to Views--><path d="M510.387,493.0667 C531.8959,499.707 562.4826,511.364 584.7666,528.9389 C630.1681,564.7459 662.8567,626.9873 676.6927,656.6974 " fill="none" id="Services-Views" style="stroke: #A80036; stroke-width: 0.9828009828009828; stroke-dasharray: 7.0,7.0;"/><polygon fill="#A80036" points="678.9036,661.5157,678.788,651.8369,676.8543,657.0494,671.6419,655.1157,678.9036,661.5157" style="stroke: #A80036; stroke-width: 0.9828009828009828;"/><!--link Services to ServiceForms--><path d="M482.723,498.1827 C479.6949,522.7104 476.0682,579.4789 500.2457,617.391 C512.5113,636.6243 533.9931,650.3399 552.9407,659.3844 " fill="none" id="Services-ServiceForms" style="stroke: #A80036; stroke-width: 0.9828009828009828; stroke-dasharray: 7.0,7.0;"/><polygon fill="#A80036" points="557.6961,661.5837,551.3182,654.3027,553.236,659.5209,548.0177,661.4388,557.6961,661.5837" style="stroke: #A80036; stroke-width: 0.9828009828009828;"/><!--link FeignClients to Views--><path d="M572.3381,600.219 C595.6363,615.4863 636.1923,642.0628 661.4943,658.6433 " fill="none" id="FeignClients-Views" style="stroke: #A80036; stroke-width: 0.9828009828009828; stroke-dasharray: 7.0,7.0;"/><polygon fill="#A80036" points="665.7261,661.4163,660.4827,653.2801,661.616,658.7229,656.1732,659.8562,665.7261,661.4163" style="stroke: #A80036; stroke-width: 0.9828009828009828;"/><!--link FeignClients to ServiceForms--><path d="M559.356,600.219 C565.6166,614.8554 576.3232,639.8857 583.4463,656.5381 " fill="none" id="FeignClients-ServiceForms" style="stroke: #A80036; stroke-width: 0.9828009828009828; stroke-dasharray: 7.0,7.0;"/><polygon fill="#A80036" points="585.5329,661.4163,585.6686,651.7378,583.6003,656.8983,578.4398,654.8299,585.5329,661.4163" style="stroke: #A80036; stroke-width: 0.9828009828009828;"/><!--
@startuml

hide circle
hide empty member

scale max 800 width

title
  |= background color     |= meaning                            |
  | <back:red>red</back>  | belongs to V in MVC pattern         |
  | <back:lightgreen>light green</back>  | belongs to C in MVC pattern     |
  | <back:yellow>yellow</back>  | belongs to M in MVC pattern   |
  | <back:white>white</back>  | value objects   |
  | <back:skyblue>skyblue</back>  | interfaces   |
end title


together {

  class ServiceForms  #white
  class Views         #white
}



together {
  class Browsers #red
  class Controllers  #lightgreen
  class Services     #yellow

}
class FeignClients #skyblue

together {

    together {

      class Entities  #yellow
      class Repositories  #yellow
    }
    class Daos  #yellow

}


Browsers ..> Controllers : HTTP requests

Controllers ..> Services : call
Services ..> Services : may call
Services ..> Repositories : may call
Services ..> Daos : may call
Services ..> FeignClients : may call

Daos -> Entities : retrieve
Entities <- Repositories : retrieve
Entities - -o Entities : link to

Controllers ..> Views
Controllers ..> ServiceForms

Services ..> Views
Services ..> ServiceForms

FeignClients ..> Views
FeignClients ..> ServiceForms




@enduml

PlantUML version 1.2017.16(Sun Sep 03 18:53:37 CST 2017)
(GPL source distribution)
Java Runtime: Java(TM) SE Runtime Environment
JVM: Java HotSpot(TM) 64-Bit Server VM
Java Version: 1.8.0_144-b01
Operating System: Mac OS X
OS Version: 10.12.6
Default Encoding: UTF-8
Language: en
Country: US
--></g></svg>