<?xml version="1.0" encoding="UTF-8" standalone="no"?><svg xmlns="http://www.w3.org/2000/svg" xmlns:xlink="http://www.w3.org/1999/xlink" contentScriptType="application/ecmascript" contentStyleType="text/css" height="694.4513px" preserveAspectRatio="none" style="width:792px;height:694px;" version="1.1" viewBox="0 0 792 694" width="792.1085px" zoomAndPan="magnify"><defs><filter height="300%" id="f1ejg39cgbdkp6" width="300%" x="-1" y="-1"><feGaussianBlur result="blurOut" stdDeviation="1.972872996300863"/><feColorMatrix in="blurOut" result="blurOut2" type="matrix" values="0 0 0 0 0 0 0 0 0 0 0 0 0 0 0 0 0 0 .4 0"/><feOffset dx="3.945745992601726" dy="3.945745992601726" in="blurOut2" result="blurOut3"/><feBlend in="SourceGraphic" in2="blurOut3" mode="normal"/></filter></defs><g><text fill="#000000" font-family="sans-serif" font-size="17.7559" font-weight="bold" lengthAdjust="spacingAndGlyphs" textLength="149.9383" x="183.4772" y="20.405">background color</text><text fill="#000000" font-family="sans-serif" font-size="17.7559" font-weight="bold" lengthAdjust="spacingAndGlyphs" textLength="74.9692" x="382.7374" y="20.405">meaning</text><rect fill="#FF0000" height="22.3335" style="stroke: none; stroke-width: 0.9864364981504316;" width="199.2602" x="178.545" y="24.3064"/><text fill="#000000" font-family="sans-serif" font-size="17.7559" lengthAdjust="spacingAndGlyphs" textLength="25.6473" x="183.4772" y="42.7385">red</text><text fill="#000000" font-family="sans-serif" font-size="17.7559" lengthAdjust="spacingAndGlyphs" textLength="219.9753" x="382.7374" y="42.7385">belongs to V in MVC pattern</text><rect fill="#90EE90" height="22.3335" style="stroke: none; stroke-width: 0.9864364981504316;" width="199.2602" x="178.545" y="46.64"/><text fill="#000000" font-family="sans-serif" font-size="17.7559" lengthAdjust="spacingAndGlyphs" textLength="82.8607" x="183.4772" y="65.0721">light green</text><text fill="#000000" font-family="sans-serif" font-size="17.7559" lengthAdjust="spacingAndGlyphs" textLength="221.9482" x="382.7374" y="65.0721">belongs to C in MVC pattern</text><rect fill="#FFFF00" height="22.3335" style="stroke: none; stroke-width: 0.9864364981504316;" width="199.2602" x="178.545" y="68.9735"/><text fill="#000000" font-family="sans-serif" font-size="17.7559" lengthAdjust="spacingAndGlyphs" textLength="49.3218" x="183.4772" y="87.4056">yellow</text><text fill="#000000" font-family="sans-serif" font-size="17.7559" lengthAdjust="spacingAndGlyphs" textLength="223.9211" x="382.7374" y="87.4056">belongs to M in MVC pattern</text><rect fill="#FFFFFF" height="22.3335" style="stroke: none; stroke-width: 0.9864364981504316;" width="199.2602" x="178.545" y="91.307"/><text fill="#000000" font-family="sans-serif" font-size="17.7559" lengthAdjust="spacingAndGlyphs" textLength="41.4303" x="183.4772" y="109.7391">white</text><text fill="#000000" font-family="sans-serif" font-size="17.7559" lengthAdjust="spacingAndGlyphs" textLength="103.5758" x="382.7374" y="109.7391">value objects</text><rect fill="#87CEEB" height="22.3335" style="stroke: none; stroke-width: 0.9864364981504316;" width="199.2602" x="178.545" y="113.6406"/><text fill="#000000" font-family="sans-serif" font-size="17.7559" lengthAdjust="spacingAndGlyphs" textLength="60.1726" x="183.4772" y="132.0727">skyblue</text><text fill="#000000" font-family="sans-serif" font-size="17.7559" lengthAdjust="spacingAndGlyphs" textLength="76.942" x="382.7374" y="132.0727">interfaces</text><line style="stroke: #000000; stroke-width: 0.9864364981504316;" x1="178.545" x2="621.455" y1="1.9729" y2="1.9729"/><line style="stroke: #000000; stroke-width: 0.9864364981504316;" x1="178.545" x2="621.455" y1="24.3064" y2="24.3064"/><line style="stroke: #000000; stroke-width: 0.9864364981504316;" x1="178.545" x2="621.455" y1="46.64" y2="46.64"/><line style="stroke: #000000; stroke-width: 0.9864364981504316;" x1="178.545" x2="621.455" y1="68.9735" y2="68.9735"/><line style="stroke: #000000; stroke-width: 0.9864364981504316;" x1="178.545" x2="621.455" y1="91.307" y2="91.307"/><line style="stroke: #000000; stroke-width: 0.9864364981504316;" x1="178.545" x2="621.455" y1="113.6406" y2="113.6406"/><line style="stroke: #000000; stroke-width: 0.9864364981504316;" x1="178.545" x2="621.455" y1="135.9741" y2="135.9741"/><line style="stroke: #000000; stroke-width: 0.9864364981504316;" x1="178.545" x2="178.545" y1="1.9729" y2="135.9741"/><line style="stroke: #000000; stroke-width: 0.9864364981504316;" x1="377.8052" x2="377.8052" y1="1.9729" y2="135.9741"/><line style="stroke: #000000; stroke-width: 0.9864364981504316;" x1="621.455" x2="621.455" y1="1.9729" y2="135.9741"/><!--class ServiceForms--><rect fill="#FFFFFF" filter="url(#f1ejg39cgbdkp6)" height="24.7534" id="ServiceForms" style="stroke: #A80036; stroke-width: 1.4796547472256474;" width="80.8878" x="125.2774" y="558.1689"/><rect fill="#FFFFFF" height="24.7534" style="stroke: #A80036; stroke-width: 1.4796547472256474;" width="80.8878" x="125.2774" y="558.1689"/><text fill="#000000" font-family="sans-serif" font-size="11.8372" lengthAdjust="spacingAndGlyphs" textLength="74.9692" x="128.2367" y="575.3892">ServiceForms</text><!--class Views--><rect fill="#FFFFFF" filter="url(#f1ejg39cgbdkp6)" height="24.7534" id="Views" style="stroke: #A80036; stroke-width: 1.4796547472256474;" width="38.471" x="205.672" y="659.7719"/><rect fill="#FFFFFF" height="24.7534" style="stroke: #A80036; stroke-width: 1.4796547472256474;" width="38.471" x="205.672" y="659.7719"/><text fill="#000000" font-family="sans-serif" font-size="11.8372" lengthAdjust="spacingAndGlyphs" textLength="32.5524" x="208.6313" y="676.9921">Views</text><!--class Entities--><rect fill="#FFFF00" filter="url(#f1ejg39cgbdkp6)" height="24.7534" id="Entities" style="stroke: #A80036; stroke-width: 1.4796547472256474;" width="46.3625" x="518.3724" y="455.0863"/><rect fill="#FFFF00" height="24.7534" style="stroke: #A80036; stroke-width: 1.4796547472256474;" width="46.3625" x="518.3724" y="455.0863"/><text fill="#000000" font-family="sans-serif" font-size="11.8372" lengthAdjust="spacingAndGlyphs" textLength="40.4439" x="521.3317" y="472.3066">Entities</text><!--class Browsers--><rect fill="#FF0000" filter="url(#f1ejg39cgbdkp6)" height="24.7534" id="Browsers" style="stroke: #A80036; stroke-width: 1.4796547472256474;" width="58.1998" x="51.7879" y="145.8385"/><rect fill="#FF0000" height="24.7534" style="stroke: #A80036; stroke-width: 1.4796547472256474;" width="58.1998" x="51.7879" y="145.8385"/><text fill="#000000" font-family="sans-serif" font-size="11.8372" lengthAdjust="spacingAndGlyphs" textLength="52.2811" x="54.7472" y="163.0587">Browsers</text><!--class Controllers--><rect fill="#90EE90" filter="url(#f1ejg39cgbdkp6)" height="24.7534" id="Controllers" style="stroke: #A80036; stroke-width: 1.4796547472256474;" width="66.0912" x="47.8422" y="247.4414"/><rect fill="#90EE90" height="24.7534" style="stroke: #A80036; stroke-width: 1.4796547472256474;" width="66.0912" x="47.8422" y="247.4414"/><text fill="#000000" font-family="sans-serif" font-size="11.8372" lengthAdjust="spacingAndGlyphs" textLength="60.1726" x="50.8015" y="264.6617">Controllers</text><!--class Services--><rect fill="#FFFF00" filter="url(#f1ejg39cgbdkp6)" height="24.7534" id="Services" style="stroke: #A80036; stroke-width: 1.4796547472256474;" width="52.2811" x="284.5869" y="350.524"/><rect fill="#FFFF00" height="24.7534" style="stroke: #A80036; stroke-width: 1.4796547472256474;" width="52.2811" x="284.5869" y="350.524"/><text fill="#000000" font-family="sans-serif" font-size="11.8372" lengthAdjust="spacingAndGlyphs" textLength="46.3625" x="287.5462" y="367.7443">Services</text><!--class Repositories--><rect fill="#FFFF00" filter="url(#f1ejg39cgbdkp6)" height="24.7534" id="Repositories" style="stroke: #A80036; stroke-width: 1.4796547472256474;" width="75.9556" x="705.7953" y="455.0863"/><rect fill="#FFFF00" height="24.7534" style="stroke: #A80036; stroke-width: 1.4796547472256474;" width="75.9556" x="705.7953" y="455.0863"/><text fill="#000000" font-family="sans-serif" font-size="11.8372" lengthAdjust="spacingAndGlyphs" textLength="70.037" x="708.7546" y="472.3066">Repositories</text><!--class DAOs--><rect fill="#FFFF00" filter="url(#f1ejg39cgbdkp6)" height="24.7534" id="DAOs" style="stroke: #A80036; stroke-width: 1.4796547472256474;" width="37.4846" x="404.439" y="455.0863"/><rect fill="#FFFF00" height="24.7534" style="stroke: #A80036; stroke-width: 1.4796547472256474;" width="37.4846" x="404.439" y="455.0863"/><text fill="#000000" font-family="sans-serif" font-size="11.8372" lengthAdjust="spacingAndGlyphs" textLength="31.566" x="407.3983" y="472.3066">DAOs</text><!--class FeignClients--><rect fill="#87CEEB" filter="url(#f1ejg39cgbdkp6)" height="24.7534" id="FeignClients" style="stroke: #A80036; stroke-width: 1.4796547472256474;" width="74.9692" x="224.9075" y="455.0863"/><rect fill="#87CEEB" height="24.7534" style="stroke: #A80036; stroke-width: 1.4796547472256474;" width="74.9692" x="224.9075" y="455.0863"/><text fill="#000000" font-family="sans-serif" font-size="11.8372" lengthAdjust="spacingAndGlyphs" textLength="69.0506" x="227.8668" y="472.3066">FeignClients</text><!--link Browsers to Controllers--><path d="M80.8878,170.5842 C80.8878,188.1319 80.8878,221.8049 80.8878,242.0871 " fill="none" id="Browsers-Controllers" style="stroke: #A80036; stroke-width: 0.9864364981504316; stroke-dasharray: 7.0,7.0;"/><polygon fill="#A80036" points="80.8878,247.183,84.8335,238.3051,80.8878,242.2508,76.942,238.3051,80.8878,247.183" style="stroke: #A80036; stroke-width: 0.9864364981504316;"/><text fill="#000000" font-family="sans-serif" font-size="12.8237" lengthAdjust="spacingAndGlyphs" textLength="84.8335" x="81.8742" y="214.391">HTTP requests</text><!--link Controllers to Services--><path d="M106.8064,272.1605 C149.597,290.9847 234.8054,328.4693 280.3541,348.5068 " fill="none" id="Controllers-Services" style="stroke: #A80036; stroke-width: 0.9864364981504316; stroke-dasharray: 7.0,7.0;"/><polygon fill="#A80036" points="284.9036,350.5073,278.367,343.3198,280.3892,348.5206,275.1884,350.5428,284.9036,350.5073" style="stroke: #A80036; stroke-width: 0.9864364981504316;"/><text fill="#000000" font-family="sans-serif" font-size="12.8237" lengthAdjust="spacingAndGlyphs" textLength="19.7287" x="211.0974" y="315.994">call</text><!--link Services to Services--><path d="M336.9174,354.0841 C354.3882,351.616 371.3933,354.5388 371.3933,362.8545 C371.3933,370.3258 357.6671,373.4439 342.2086,372.2099 " fill="none" id="Services-Services" style="stroke: #A80036; stroke-width: 0.9864364981504316; stroke-dasharray: 7.0,7.0;"/><polygon fill="#A80036" points="336.9174,371.6249,345.3074,376.5232,341.8196,372.1674,346.1754,368.6796,336.9174,371.6249" style="stroke: #A80036; stroke-width: 0.9864364981504316;"/><text fill="#000000" font-family="sans-serif" font-size="12.8237" lengthAdjust="spacingAndGlyphs" textLength="48.3354" x="377.312" y="368.2751">may call</text><!--link Services to FeignClients--><path d="M298.8173,375.4148 C291.2602,383.4089 281.8703,394.6552 276.2022,406.2577 C269.451,420.0777 265.9295,437.3107 264.1381,449.7891 " fill="none" id="Services-FeignClients" style="stroke: #A80036; stroke-width: 0.9864364981504316; stroke-dasharray: 7.0,7.0;"/><polygon fill="#A80036" points="263.4713,454.8219,268.5495,446.5395,264.1194,449.9325,260.7264,445.5025,263.4713,454.8219" style="stroke: #A80036; stroke-width: 0.9864364981504316;"/><text fill="#000000" font-family="sans-serif" font-size="12.8237" lengthAdjust="spacingAndGlyphs" textLength="48.3354" x="277.1887" y="420.5562">may call</text><!--link Services to Repositories--><path d="M337.165,370.1038 C409.6158,387.2678 611.853,435.1781 700.8316,456.2572 " fill="none" id="Services-Repositories" style="stroke: #A80036; stroke-width: 0.9864364981504316; stroke-dasharray: 7.0,7.0;"/><polygon fill="#A80036" points="705.7549,457.4242,698.0258,451.5379,700.9556,456.287,696.2064,459.2168,705.7549,457.4242" style="stroke: #A80036; stroke-width: 0.9864364981504316;"/><text fill="#000000" font-family="sans-serif" font-size="12.8237" lengthAdjust="spacingAndGlyphs" textLength="48.3354" x="553.3909" y="420.5562">may call</text><!--link Services to DAOs--><path d="M332.9667,375.2096 C346.7472,382.8792 364.3255,393.8434 377.8052,406.2577 C392.1588,419.4769 405.1887,437.7162 413.5655,450.6395 " fill="none" id="Services-DAOs" style="stroke: #A80036; stroke-width: 0.9864364981504316; stroke-dasharray: 7.0,7.0;"/><polygon fill="#A80036" points="416.2239,454.8042,414.7747,445.1976,413.5708,450.6464,408.1221,449.4425,416.2239,454.8042" style="stroke: #A80036; stroke-width: 0.9864364981504316;"/><text fill="#000000" font-family="sans-serif" font-size="12.8237" lengthAdjust="spacingAndGlyphs" textLength="48.3354" x="394.5746" y="420.5562">may call</text><!--link Entities to Repositories--><path d="M569.7904,467.4168 C605.24,467.4168 666.1869,467.4168 705.7223,467.4168 " fill="none" id="Entities-Repositories" style="stroke: #A80036; stroke-width: 0.9864364981504316;"/><polygon fill="#A80036" points="564.7507,467.4168,573.6286,471.3625,569.6829,467.4168,573.6286,463.471,564.7507,467.4168" style="stroke: #A80036; stroke-width: 0.9864364981504316;"/><text fill="#000000" font-family="sans-serif" font-size="12.8237" lengthAdjust="spacingAndGlyphs" textLength="40.4439" x="615.0432" y="461.0001">retrieve</text><!--link DAOs to Entities--><path d="M441.9374,467.4168 C461.0091,467.4168 490.8084,467.4168 512.8503,467.4168 " fill="none" id="DAOs-Entities" style="stroke: #A80036; stroke-width: 0.9864364981504316;"/><polygon fill="#A80036" points="517.9926,467.4168,509.1147,463.471,513.0604,467.4168,509.1147,471.3625,517.9926,467.4168" style="stroke: #A80036; stroke-width: 0.9864364981504316;"/><text fill="#000000" font-family="sans-serif" font-size="12.8237" lengthAdjust="spacingAndGlyphs" textLength="40.4439" x="459.926" y="461.0001">retrieve</text><!--link Entities to Entities--><path d="M564.9637,458.8841 C582.0952,456.0067 599.2602,458.8506 599.2602,467.4168 C599.2602,473.7744 589.8052,476.9803 577.9255,477.0335 " fill="none" id="Entities-Entities" style="stroke: #A80036; stroke-width: 0.9864364981504316;"/><polygon fill="#FFFFFF" points="564.9637,475.9494,570.5326,480.3751,576.7597,476.9368,571.1909,472.5111,564.9637,475.9494" style="stroke: #A80036; stroke-width: 0.9864364981504316;"/><text fill="#000000" font-family="sans-serif" font-size="12.8237" lengthAdjust="spacingAndGlyphs" textLength="34.5253" x="605.1788" y="472.8374">link to</text><!--link Controllers to Views--><path d="M64.2497,272.3647 C42.1632,289.2821 5.9186,322.9699 5.9186,361.8681 C5.9186,361.8681 5.9186,361.8681 5.9186,571.4858 C5.9186,656.2248 143.4515,669.2259 200.5317,670.9728 " fill="none" id="Controllers-Views" style="stroke: #A80036; stroke-width: 0.9864364981504316; stroke-dasharray: 7.0,7.0;"/><polygon fill="#A80036" points="205.4737,671.1018,196.7014,666.9266,200.5432,670.9736,196.4962,674.8154,205.4737,671.1018" style="stroke: #A80036; stroke-width: 0.9864364981504316;"/><text fill="#000000" font-family="sans-serif" font-size="12.8237" lengthAdjust="spacingAndGlyphs" textLength="20.7152" x="6.9051" y="472.8374">use</text><!--link Controllers to ServiceForms--><path d="M84.0077,272.1132 C96.8943,319.0143 146.0094,497.7714 161.2104,553.0947 " fill="none" id="Controllers-ServiceForms" style="stroke: #A80036; stroke-width: 0.9864364981504316; stroke-dasharray: 7.0,7.0;"/><polygon fill="#A80036" points="162.5726,558.0545,164.0234,548.4482,161.265,553.2988,156.4143,550.5404,162.5726,558.0545" style="stroke: #A80036; stroke-width: 0.9864364981504316;"/><text fill="#000000" font-family="sans-serif" font-size="12.8237" lengthAdjust="spacingAndGlyphs" textLength="20.7152" x="126.2639" y="420.5562">use</text><!--link Services to Views--><path d="M317.6967,375.2372 C322.3309,383.5105 328.001,395.1554 330.4562,406.2577 C332.1608,413.9628 331.276,416.1645 330.4562,424.0136 C320.6806,517.6185 337.2863,553.9282 282.1208,630.1788 C273.4619,642.1469 260.215,651.9437 248.6471,658.9497 " fill="none" id="Services-Views" style="stroke: #A80036; stroke-width: 0.9864364981504316; stroke-dasharray: 7.0,7.0;"/><polygon fill="#A80036" points="244.144,661.5906,253.7984,660.5044,248.3989,659.0961,249.8072,653.6966,244.144,661.5906" style="stroke: #A80036; stroke-width: 0.9864364981504316;"/><text fill="#000000" font-family="sans-serif" font-size="12.8237" lengthAdjust="spacingAndGlyphs" textLength="20.7152" x="326.5105" y="525.1185">use</text><!--link Services to ServiceForms--><path d="M284.4232,374.893 C254.9721,388.7297 208.2614,415.3546 184.4636,453.6067 C165.1433,484.6617 163.6982,529.1243 164.5633,552.9428 " fill="none" id="Services-ServiceForms" style="stroke: #A80036; stroke-width: 0.9864364981504316; stroke-dasharray: 7.0,7.0;"/><polygon fill="#A80036" points="164.7921,557.9785,168.328,548.9296,164.5667,553.0515,160.4447,549.2902,164.7921,557.9785" style="stroke: #A80036; stroke-width: 0.9864364981504316;"/><text fill="#000000" font-family="sans-serif" font-size="12.8237" lengthAdjust="spacingAndGlyphs" textLength="20.7152" x="185.4501" y="472.8374">use</text><!--link FeignClients to Views--><path d="M263.8481,479.7916 C266.8626,506.7953 272.0533,576.4693 253.5142,630.1788 C250.3744,639.2737 244.582,648.1758 239.0264,655.3434 " fill="none" id="FeignClients-Views" style="stroke: #A80036; stroke-width: 0.9864364981504316; stroke-dasharray: 7.0,7.0;"/><polygon fill="#A80036" points="235.6232,659.5683,244.2649,655.129,238.7169,655.727,238.1189,650.179,235.6232,659.5683" style="stroke: #A80036; stroke-width: 0.9864364981504316;"/><text fill="#000000" font-family="sans-serif" font-size="12.8237" lengthAdjust="spacingAndGlyphs" textLength="20.7152" x="267.3243" y="575.92">use</text><!--link FeignClients to ServiceForms--><path d="M251.3026,480.0017 C233.748,498.3623 199.562,534.1186 180.1302,554.4422 " fill="none" id="FeignClients-ServiceForms" style="stroke: #A80036; stroke-width: 0.9864364981504316; stroke-dasharray: 7.0,7.0;"/><polygon fill="#A80036" points="176.6816,558.0496,185.6681,554.3577,180.0894,554.484,179.9631,548.9053,176.6816,558.0496" style="stroke: #A80036; stroke-width: 0.9864364981504316;"/><text fill="#000000" font-family="sans-serif" font-size="12.8237" lengthAdjust="spacingAndGlyphs" textLength="20.7152" x="220.9618" y="525.1185">use</text><!--link ServiceForms to Views--><path d="M166.6683,583.039 C168.1154,595.4439 171.711,615.3652 180.5179,630.1788 C184,636.036 188.5761,641.558 193.4649,646.5374 " fill="none" id="ServiceForms-Views" style="stroke: #A80036; stroke-width: 0.9864364981504316;"/><polygon fill="none" points="198.0824,641.4026,208.294,659.6404,188.9381,651.7516,198.0824,641.4026" style="stroke: #A80036; stroke-width: 0.9864364981504316;"/><text fill="#000000" font-family="sans-serif" font-size="12.8237" lengthAdjust="spacingAndGlyphs" textLength="67.0777" x="181.5043" y="626.7214">may extend</text><!--
@startuml

hide circle
hide empty member

scale max 800 width


title
  |= background color         |= meaning                      |
  |<#red> red                 | belongs to V in MVC pattern   |
  |<#lightgreen> light green  | belongs to C in MVC pattern   |
  |<#yellow> yellow           | belongs to M in MVC pattern   |
  |<#white> white             | value objects                 |
  |<#skyblue> skyblue         | interfaces                    |
end title



  class ServiceForms  #white
  class Views         #white


class Entities  #yellow

class Browsers #red
class Controllers  #lightgreen
class Services     #yellow
class Repositories  #yellow
class DAOs  #yellow
class FeignClients #skyblue



Browsers ..> Controllers : HTTP requests

Controllers ..> Services : call
Services ..> Services : may call
Services ..> FeignClients : may call


Services ..> Repositories : may call
Services ..> DAOs : may call
Entities <- Repositories : retrieve


DAOs -> Entities : retrieve

Entities - -o Entities : link to

Controllers ..> Views : use
Controllers ..> ServiceForms : use

Services ..> Views : use
Services ..> ServiceForms : use

FeignClients ..> Views : use
FeignClients ..> ServiceForms : use

ServiceForms - -|> Views : may extend

@enduml

PlantUML version 1.2017.16(Sun Sep 03 18:53:37 CST 2017)
(GPL source distribution)
Java Runtime: Java(TM) SE Runtime Environment
JVM: Java HotSpot(TM) 64-Bit Server VM
Java Version: 1.8.0_66-b18
Operating System: Windows 7
OS Version: 6.1
Default Encoding: UTF-8
Language: zh
Country: CN
--></g></svg>