<?xml version="1.0" encoding="UTF-8" standalone="no"?><svg xmlns="http://www.w3.org/2000/svg" xmlns:xlink="http://www.w3.org/1999/xlink" contentScriptType="application/ecmascript" contentStyleType="text/css" height="688px" preserveAspectRatio="none" style="width:1172px;height:688px;" version="1.1" viewBox="0 0 1172 688" width="1172px" zoomAndPan="magnify"><defs><filter height="300%" id="f11whxgsti944q" width="300%" x="-1" y="-1"><feGaussianBlur result="blurOut" stdDeviation="2.0"/><feColorMatrix in="blurOut" result="blurOut2" type="matrix" values="0 0 0 0 0 0 0 0 0 0 0 0 0 0 0 0 0 0 .4 0"/><feOffset dx="4.0" dy="4.0" in="blurOut2" result="blurOut3"/><feBlend in="SourceGraphic" in2="blurOut3" mode="normal"/></filter></defs><g><line style="stroke: #A80036; stroke-width: 1.0; stroke-dasharray: 5.0,5.0;" x1="38" x2="38" y1="65.4883" y2="615.0098"/><line style="stroke: #A80036; stroke-width: 1.0; stroke-dasharray: 5.0,5.0;" x1="240" x2="240" y1="65.4883" y2="615.0098"/><line style="stroke: #A80036; stroke-width: 1.0; stroke-dasharray: 5.0,5.0;" x1="407" x2="407" y1="65.4883" y2="615.0098"/><line style="stroke: #A80036; stroke-width: 1.0; stroke-dasharray: 5.0,5.0;" x1="567" x2="567" y1="65.4883" y2="615.0098"/><line style="stroke: #A80036; stroke-width: 1.0; stroke-dasharray: 5.0,5.0;" x1="775" x2="775" y1="65.4883" y2="615.0098"/><line style="stroke: #A80036; stroke-width: 1.0; stroke-dasharray: 5.0,5.0;" x1="902" x2="902" y1="65.4883" y2="615.0098"/><line style="stroke: #A80036; stroke-width: 1.0; stroke-dasharray: 5.0,5.0;" x1="1027" x2="1027" y1="65.4883" y2="615.0098"/><line style="stroke: #A80036; stroke-width: 1.0; stroke-dasharray: 5.0,5.0;" x1="1142" x2="1142" y1="65.4883" y2="615.0098"/><text fill="#000000" font-family="sans-serif" font-size="14" lengthAdjust="spacingAndGlyphs" textLength="55" x="8" y="62.5352">Browser</text><path d="M18,21 L18,45 M18,33 L35,33 " fill="#FEFECE" filter="url(#f11whxgsti944q)" style="stroke: #A80036; stroke-width: 2.0;"/><ellipse cx="47" cy="33" fill="#FEFECE" filter="url(#f11whxgsti944q)" rx="12" ry="12" style="stroke: #A80036; stroke-width: 2.0;"/><text fill="#000000" font-family="sans-serif" font-size="14" lengthAdjust="spacingAndGlyphs" textLength="55" x="8" y="627.5449">Browser</text><path d="M18,634.498 L18,658.498 M18,646.498 L35,646.498 " fill="#FEFECE" filter="url(#f11whxgsti944q)" style="stroke: #A80036; stroke-width: 2.0;"/><ellipse cx="47" cy="646.498" fill="#FEFECE" filter="url(#f11whxgsti944q)" rx="12" ry="12" style="stroke: #A80036; stroke-width: 2.0;"/><text fill="#000000" font-family="sans-serif" font-size="14" lengthAdjust="spacingAndGlyphs" textLength="83" x="196" y="62.5352">Interceptors</text><ellipse cx="240.5" cy="33" fill="#FEFECE" filter="url(#f11whxgsti944q)" rx="12" ry="12" style="stroke: #A80036; stroke-width: 2.0;"/><polygon fill="#A80036" points="236.5,21,242.5,16,240.5,21,242.5,26,236.5,21" style="stroke: #A80036; stroke-width: 1.0;"/><text fill="#000000" font-family="sans-serif" font-size="14" lengthAdjust="spacingAndGlyphs" textLength="83" x="196" y="627.5449">Interceptors</text><ellipse cx="240.5" cy="646.498" fill="#FEFECE" filter="url(#f11whxgsti944q)" rx="12" ry="12" style="stroke: #A80036; stroke-width: 2.0;"/><polygon fill="#A80036" points="236.5,634.498,242.5,629.498,240.5,634.498,242.5,639.498,236.5,634.498" style="stroke: #A80036; stroke-width: 1.0;"/><text fill="#000000" font-family="sans-serif" font-size="14" lengthAdjust="spacingAndGlyphs" textLength="77" x="366" y="62.5352">Controllers</text><ellipse cx="407.5" cy="33" fill="#FEFECE" filter="url(#f11whxgsti944q)" rx="12" ry="12" style="stroke: #A80036; stroke-width: 2.0;"/><polygon fill="#A80036" points="403.5,21,409.5,16,407.5,21,409.5,26,403.5,21" style="stroke: #A80036; stroke-width: 1.0;"/><text fill="#000000" font-family="sans-serif" font-size="14" lengthAdjust="spacingAndGlyphs" textLength="77" x="366" y="627.5449">Controllers</text><ellipse cx="407.5" cy="646.498" fill="#FEFECE" filter="url(#f11whxgsti944q)" rx="12" ry="12" style="stroke: #A80036; stroke-width: 2.0;"/><polygon fill="#A80036" points="403.5,634.498,409.5,629.498,407.5,634.498,409.5,639.498,403.5,634.498" style="stroke: #A80036; stroke-width: 1.0;"/><text fill="#000000" font-family="sans-serif" font-size="14" lengthAdjust="spacingAndGlyphs" textLength="55" x="537" y="62.5352">Services</text><ellipse cx="567.5" cy="33" fill="#FEFECE" filter="url(#f11whxgsti944q)" rx="12" ry="12" style="stroke: #A80036; stroke-width: 2.0;"/><polygon fill="#A80036" points="563.5,21,569.5,16,567.5,21,569.5,26,563.5,21" style="stroke: #A80036; stroke-width: 1.0;"/><text fill="#000000" font-family="sans-serif" font-size="14" lengthAdjust="spacingAndGlyphs" textLength="55" x="537" y="627.5449">Services</text><ellipse cx="567.5" cy="646.498" fill="#FEFECE" filter="url(#f11whxgsti944q)" rx="12" ry="12" style="stroke: #A80036; stroke-width: 2.0;"/><polygon fill="#A80036" points="563.5,634.498,569.5,629.498,567.5,634.498,569.5,639.498,563.5,634.498" style="stroke: #A80036; stroke-width: 1.0;"/><text fill="#000000" font-family="sans-serif" font-size="14" lengthAdjust="spacingAndGlyphs" textLength="85" x="730" y="62.5352">FeignClients</text><ellipse cx="775.5" cy="33" fill="#FEFECE" filter="url(#f11whxgsti944q)" rx="12" ry="12" style="stroke: #A80036; stroke-width: 2.0;"/><polygon fill="#A80036" points="771.5,21,777.5,16,775.5,21,777.5,26,771.5,21" style="stroke: #A80036; stroke-width: 1.0;"/><text fill="#000000" font-family="sans-serif" font-size="14" lengthAdjust="spacingAndGlyphs" textLength="85" x="730" y="627.5449">FeignClients</text><ellipse cx="775.5" cy="646.498" fill="#FEFECE" filter="url(#f11whxgsti944q)" rx="12" ry="12" style="stroke: #A80036; stroke-width: 2.0;"/><polygon fill="#A80036" points="771.5,634.498,777.5,629.498,775.5,634.498,777.5,639.498,771.5,634.498" style="stroke: #A80036; stroke-width: 1.0;"/><text fill="#000000" font-family="sans-serif" font-size="14" lengthAdjust="spacingAndGlyphs" textLength="136" x="831" y="62.5352">RepositoriesOrDaos</text><ellipse cx="902" cy="33" fill="#FEFECE" filter="url(#f11whxgsti944q)" rx="12" ry="12" style="stroke: #A80036; stroke-width: 2.0;"/><polygon fill="#A80036" points="898,21,904,16,902,21,904,26,898,21" style="stroke: #A80036; stroke-width: 1.0;"/><text fill="#000000" font-family="sans-serif" font-size="14" lengthAdjust="spacingAndGlyphs" textLength="136" x="831" y="627.5449">RepositoriesOrDaos</text><ellipse cx="902" cy="646.498" fill="#FEFECE" filter="url(#f11whxgsti944q)" rx="12" ry="12" style="stroke: #A80036; stroke-width: 2.0;"/><polygon fill="#A80036" points="898,634.498,904,629.498,902,634.498,904,639.498,898,634.498" style="stroke: #A80036; stroke-width: 1.0;"/><text fill="#000000" font-family="sans-serif" font-size="14" lengthAdjust="spacingAndGlyphs" textLength="50" x="999" y="62.5352">Entities</text><ellipse cx="1027" cy="33" fill="#FEFECE" filter="url(#f11whxgsti944q)" rx="12" ry="12" style="stroke: #A80036; stroke-width: 2.0;"/><line style="stroke: #A80036; stroke-width: 2.0;" x1="1015" x2="1039" y1="47" y2="47"/><text fill="#000000" font-family="sans-serif" font-size="14" lengthAdjust="spacingAndGlyphs" textLength="50" x="999" y="627.5449">Entities</text><ellipse cx="1027" cy="646.498" fill="#FEFECE" filter="url(#f11whxgsti944q)" rx="12" ry="12" style="stroke: #A80036; stroke-width: 2.0;"/><line style="stroke: #A80036; stroke-width: 2.0;" x1="1015" x2="1039" y1="660.498" y2="660.498"/><text fill="#000000" font-family="sans-serif" font-size="14" lengthAdjust="spacingAndGlyphs" textLength="18" x="1130" y="62.5352">DB</text><path d="M1124,13 C1124,3 1142,3 1142,3 C1142,3 1160,3 1160,13 L1160,39 C1160,49 1142,49 1142,49 C1142,49 1124,49 1124,39 L1124,13 " fill="#FEFECE" filter="url(#f11whxgsti944q)" style="stroke: #000000; stroke-width: 1.5;"/><path d="M1124,13 C1124,23 1142,23 1142,23 C1142,23 1160,23 1160,13 " fill="none" style="stroke: #000000; stroke-width: 1.5;"/><text fill="#000000" font-family="sans-serif" font-size="14" lengthAdjust="spacingAndGlyphs" textLength="18" x="1130" y="627.5449">DB</text><path d="M1124,640.498 C1124,630.498 1142,630.498 1142,630.498 C1142,630.498 1160,630.498 1160,640.498 L1160,666.498 C1160,676.498 1142,676.498 1142,676.498 C1142,676.498 1124,676.498 1124,666.498 L1124,640.498 " fill="#FEFECE" filter="url(#f11whxgsti944q)" style="stroke: #000000; stroke-width: 1.5;"/><path d="M1124,640.498 C1124,650.498 1142,650.498 1142,650.498 C1142,650.498 1160,650.498 1160,640.498 " fill="none" style="stroke: #000000; stroke-width: 1.5;"/><polygon fill="#A80036" points="228.5,92.4883,238.5,96.4883,228.5,100.4883,232.5,96.4883" style="stroke: #A80036; stroke-width: 1.0;"/><line style="stroke: #A80036; stroke-width: 1.0;" x1="38.5" x2="234.5" y1="96.4883" y2="96.4883"/><text fill="#000000" font-family="sans-serif" font-size="13" lengthAdjust="spacingAndGlyphs" textLength="122" x="45.5" y="92.0566">JSON HTTP Request</text><line style="stroke: #A80036; stroke-width: 1.0;" x1="240.5" x2="282.5" y1="126.1094" y2="126.1094"/><line style="stroke: #A80036; stroke-width: 1.0;" x1="282.5" x2="282.5" y1="126.1094" y2="139.1094"/><line style="stroke: #A80036; stroke-width: 1.0;" x1="241.5" x2="282.5" y1="139.1094" y2="139.1094"/><polygon fill="#A80036" points="251.5,135.1094,241.5,139.1094,251.5,143.1094,247.5,139.1094" style="stroke: #A80036; stroke-width: 1.0;"/><text fill="#000000" font-family="sans-serif" font-size="13" lengthAdjust="spacingAndGlyphs" textLength="111" x="247.5" y="121.3672">Security checking</text><polygon fill="#A80036" points="395.5,194.1094,405.5,198.1094,395.5,202.1094,399.5,198.1094" style="stroke: #A80036; stroke-width: 1.0;"/><line style="stroke: #A80036; stroke-width: 1.0;" x1="240.5" x2="401.5" y1="198.1094" y2="198.1094"/><text fill="#000000" font-family="sans-serif" font-size="13" lengthAdjust="spacingAndGlyphs" textLength="121" x="247.5" y="163.6777">Parse HTTP request</text><text fill="#000000" font-family="sans-serif" font-size="13" lengthAdjust="spacingAndGlyphs" textLength="108" x="247.5" y="178.9883">into java objects.</text><text fill="#000000" font-family="sans-serif" font-size="13" lengthAdjust="spacingAndGlyphs" textLength="143" x="247.5" y="194.2988">Such as, Service Forms</text><polygon fill="#A80036" points="555.5,224.041,565.5,228.041,555.5,232.041,559.5,228.041" style="stroke: #A80036; stroke-width: 1.0;"/><line style="stroke: #A80036; stroke-width: 1.0;" x1="407.5" x2="561.5" y1="228.041" y2="228.041"/><text fill="#000000" font-family="sans-serif" font-size="13" lengthAdjust="spacingAndGlyphs" textLength="120" x="414.5" y="223.6094">Launch transaction</text><line style="stroke: #A80036; stroke-width: 1.0;" x1="567.5" x2="609.5" y1="257.6621" y2="257.6621"/><line style="stroke: #A80036; stroke-width: 1.0;" x1="609.5" x2="609.5" y1="257.6621" y2="270.6621"/><line style="stroke: #A80036; stroke-width: 1.0;" x1="568.5" x2="609.5" y1="270.6621" y2="270.6621"/><polygon fill="#A80036" points="578.5,266.6621,568.5,270.6621,578.5,274.6621,574.5,270.6621" style="stroke: #A80036; stroke-width: 1.0;"/><text fill="#000000" font-family="sans-serif" font-size="13" lengthAdjust="spacingAndGlyphs" textLength="143" x="574.5" y="252.9199">May call other services</text><polygon fill="#A80036" points="763.5,295.6621,773.5,299.6621,763.5,303.6621,767.5,299.6621" style="stroke: #A80036; stroke-width: 1.0;"/><line style="stroke: #A80036; stroke-width: 1.0;" x1="567.5" x2="769.5" y1="299.6621" y2="299.6621"/><text fill="#000000" font-family="sans-serif" font-size="13" lengthAdjust="spacingAndGlyphs" textLength="184" x="574.5" y="295.2305">May call other micro-service.</text><polygon fill="#A80036" points="890,339.9727,900,343.9727,890,347.9727,894,343.9727" style="stroke: #A80036; stroke-width: 1.0;"/><line style="stroke: #A80036; stroke-width: 1.0;" x1="567.5" x2="896" y1="343.9727" y2="343.9727"/><text fill="#000000" font-family="sans-serif" font-size="13" lengthAdjust="spacingAndGlyphs" textLength="181" x="574.5" y="324.541">May call repositories or daos</text><text fill="#000000" font-family="sans-serif" font-size="13" lengthAdjust="spacingAndGlyphs" textLength="80" x="578.5" y="339.8516">to access DB</text><polygon fill="#A80036" points="1015,369.5938,1025,373.5938,1015,377.5938,1019,373.5938" style="stroke: #A80036; stroke-width: 1.0;"/><line style="stroke: #A80036; stroke-width: 1.0;" x1="902" x2="1021" y1="373.5938" y2="373.5938"/><text fill="#000000" font-family="sans-serif" font-size="13" lengthAdjust="spacingAndGlyphs" textLength="101" x="909" y="369.1621">Retrieve entities</text><polygon fill="#A80036" points="1130,398.9043,1140,402.9043,1130,406.9043,1134,402.9043" style="stroke: #A80036; stroke-width: 1.0;"/><line style="stroke: #A80036; stroke-width: 1.0;" x1="1027" x2="1136" y1="402.9043" y2="402.9043"/><text fill="#000000" font-family="sans-serif" font-size="13" lengthAdjust="spacingAndGlyphs" textLength="91" x="1034" y="398.4727">Exchange data</text><polygon fill="#A80036" points="578.5,443.2148,568.5,447.2148,578.5,451.2148,574.5,447.2148" style="stroke: #A80036; stroke-width: 1.0;"/><line style="stroke: #A80036; stroke-width: 1.0;" x1="572.5" x2="901" y1="447.2148" y2="447.2148"/><text fill="#000000" font-family="sans-serif" font-size="13" lengthAdjust="spacingAndGlyphs" textLength="114" x="584.5" y="427.7832">Return entities for</text><text fill="#000000" font-family="sans-serif" font-size="13" lengthAdjust="spacingAndGlyphs" textLength="142" x="584.5" y="443.0938">services to manipulate</text><polygon fill="#A80036" points="418.5,487.8359,408.5,491.8359,418.5,495.8359,414.5,491.8359" style="stroke: #A80036; stroke-width: 1.0;"/><line style="stroke: #A80036; stroke-width: 1.0;" x1="412.5" x2="566.5" y1="491.8359" y2="491.8359"/><text fill="#000000" font-family="sans-serif" font-size="13" lengthAdjust="spacingAndGlyphs" textLength="132" x="424.5" y="472.4043">Return value objects.</text><text fill="#000000" font-family="sans-serif" font-size="13" lengthAdjust="spacingAndGlyphs" textLength="96" x="424.5" y="487.7148">Such as, Views.</text><polygon fill="#A80036" points="251.5,563.457,241.5,567.457,251.5,571.457,247.5,567.457" style="stroke: #A80036; stroke-width: 1.0;"/><line style="stroke: #A80036; stroke-width: 1.0;" x1="245.5" x2="406.5" y1="567.457" y2="567.457"/><text fill="#000000" font-family="sans-serif" font-size="13" lengthAdjust="spacingAndGlyphs" textLength="88" x="257.5" y="517.0254">Do some final</text><text fill="#000000" font-family="sans-serif" font-size="13" lengthAdjust="spacingAndGlyphs" textLength="123" x="257.5" y="532.3359">adjustment to data.</text><text fill="#000000" font-family="sans-serif" font-size="13" lengthAdjust="spacingAndGlyphs" textLength="136" x="257.5" y="547.6465">Such as, update HTTP</text><text fill="#000000" font-family="sans-serif" font-size="13" lengthAdjust="spacingAndGlyphs" textLength="53" x="261.5" y="562.957">headers.</text><polygon fill="#A80036" points="49.5,592.6992,39.5,596.6992,49.5,600.6992,45.5,596.6992" style="stroke: #A80036; stroke-width: 1.0;"/><line style="stroke: #A80036; stroke-width: 1.0;" x1="43.5" x2="239.5" y1="596.6992" y2="596.6992"/><text fill="#000000" font-family="sans-serif" font-size="13" lengthAdjust="spacingAndGlyphs" textLength="178" x="55.5" y="592.2676">Return JSON HTTP response.</text><!--
@startuml



boundary Browser
control Interceptors
control Controllers
control Services
control FeignClients
control RepositoriesOrDaos
entity Entities
database DB

Browser -> Interceptors : JSON HTTP Request
Interceptors -> Interceptors : Security checking
Interceptors -> Controllers : Parse HTTP request \ninto java objects. \nSuch as, Service Forms
Controllers -> Services : Launch transaction
Services -> Services : May call other services
Services -> FeignClients: May call other micro-service.
Services -> RepositoriesOrDaos : May call repositories or daos\n to access DB
RepositoriesOrDaos -> Entities : Retrieve entities
Entities -> DB : Exchange data
RepositoriesOrDaos -> Services : Return entities for \nservices to manipulate
Services -> Controllers : Return value objects. \nSuch as, Views.
Controllers -> Interceptors : Do some final \nadjustment to data. \nSuch as, update HTTP\n headers.
Interceptors -> Browser: Return JSON HTTP response.

@enduml

PlantUML version 1.2017.16(Sun Sep 03 18:53:37 CST 2017)
(GPL source distribution)
Java Runtime: Java(TM) SE Runtime Environment
JVM: Java HotSpot(TM) 64-Bit Server VM
Java Version: 1.8.0_144-b01
Operating System: Mac OS X
OS Version: 10.12.6
Default Encoding: UTF-8
Language: en
Country: US
--></g></svg>